<svg width="489" height="383" viewBox="0 0 489 383" fill="none" xmlns="http://www.w3.org/2000/svg">
<path d="M50.1677 231.066L34.3131 230.711L26.5042 230.592C23.9012 230.592 21.2982 230.592 18.8135 230.474L19.2868 230.947L19.4051 217.696L18.8135 218.287L34.4314 218.169C39.6374 218.169 44.8434 218.051 50.0494 217.932L49.6944 217.578C49.6944 219.707 49.8127 221.955 49.8127 224.085L50.1677 231.066ZM50.1677 231.066L50.286 224.558C50.286 222.31 50.4043 220.062 50.4043 217.814V217.459H50.0494C44.8434 217.341 39.6374 217.223 34.4314 217.223L18.8135 217.104H18.2219V217.696L18.3402 230.947V231.421H18.8135C21.4165 231.421 24.1378 231.421 26.7408 231.302L34.6681 231.184L50.1677 231.066Z" fill="#EBEBEB"/>
<path d="M32.6569 247.749L16.8023 247.394L8.99337 247.276C6.39039 247.276 3.7874 247.276 1.30273 247.157L1.77599 247.63L1.89432 234.379L1.30273 234.971L16.9207 234.852C22.1266 234.852 27.3326 234.734 32.5386 234.616L32.1836 234.261C32.1836 236.39 32.302 238.638 32.302 240.768L32.6569 247.749ZM32.6569 247.749L32.7752 241.241C32.7752 238.993 32.8936 236.745 32.8936 234.497V234.142H32.5386C27.3326 234.024 22.1266 233.906 16.9207 233.906L1.30273 233.787H0.71114V234.379L0.829464 247.63V248.104H1.30273C3.90572 248.104 6.62704 248.104 9.23002 247.985L17.1573 247.867L32.6569 247.749Z" fill="#EBEBEB"/>
<path d="M67.6784 247.749L51.8238 247.394L44.0149 247.276C41.4119 247.276 38.8089 247.276 36.3242 247.157L36.7975 247.63L36.9158 234.379L36.3242 234.971L51.9422 234.852C57.1481 234.852 62.3541 234.734 67.5601 234.616L67.2051 234.261C67.2051 236.39 67.3235 238.638 67.3235 240.768L67.6784 247.749ZM67.6784 247.749L67.7967 241.241C67.7967 238.993 67.915 236.745 67.915 234.497V234.142H67.5601C62.3541 234.024 57.1481 233.906 51.9422 233.906L36.3242 233.787H35.7326V234.379L35.8509 247.63V248.104H36.3242C38.9272 248.104 41.6485 248.104 44.2515 247.985L52.1788 247.867L67.6784 247.749Z" fill="#EBEBEB"/>
<path d="M471.496 247.749L455.641 247.394L447.832 247.276C445.229 247.276 442.626 247.276 440.142 247.157L440.615 247.63L440.733 234.379L440.142 234.971H455.76C460.966 234.971 466.171 234.852 471.377 234.734L471.023 234.379C471.023 236.509 471.141 238.757 471.141 240.886L471.496 247.749ZM471.496 247.749L471.614 241.241C471.614 238.993 471.732 236.745 471.732 234.497V234.142H471.377C466.171 234.024 460.966 233.906 455.76 233.906L440.142 233.787H439.55V234.379V247.749V248.222H440.023C442.626 248.222 445.348 248.222 447.951 248.104L455.878 247.985L471.496 247.749Z" fill="#EBEBEB"/>
<path d="M201.237 56.3723L217.091 56.7272L224.9 56.8456C227.503 56.8456 230.106 56.8456 232.591 56.9639L232.118 56.4906L231.999 69.7422L232.591 69.1506L216.973 69.2689C211.767 69.2689 206.561 69.3872 201.355 69.5055L201.71 69.8605C201.71 67.7308 201.592 65.4827 201.592 63.353L201.237 56.3723ZM201.237 56.3723L201.119 62.8798C201.119 65.1278 201 67.3758 201 69.6239V69.9788H201.355C206.561 70.0971 211.767 70.2155 216.973 70.2155L232.591 70.3338H233.183V69.7422L233.064 56.4906V56.0173H232.591C229.988 56.0173 227.267 56.0173 224.664 56.1356L216.736 56.254L201.237 56.3723Z" fill="#EBEBEB"/>
<path d="M218.748 39.6902L234.602 40.0451L242.411 40.1634C245.014 40.1634 247.617 40.1634 250.102 40.2817L249.628 39.8085L249.51 53.0601L250.102 52.4685L234.484 52.5868C229.278 52.5868 224.072 52.7051 218.866 52.8234L219.221 53.1784C219.221 51.0486 219.103 48.8006 219.103 46.6709L218.748 39.6902ZM218.748 39.6902L218.629 46.1976C218.629 48.4457 218.511 50.6937 218.511 52.9417V53.2967H218.866C224.072 53.415 229.278 53.5333 234.484 53.5333L250.102 53.6516H250.693V53.0601L250.575 39.8085V39.3352H250.102C247.499 39.3352 244.777 39.3352 242.174 39.4535L234.247 39.5718L218.748 39.6902Z" fill="#EBEBEB"/>
<path d="M43.0682 164.69H152.275V308.682H43.0682V164.69Z" fill="#EBEBEB"/>
<path d="M37.7438 159.01H157.6V164.571H37.7438V159.01Z" fill="#DBDBDB"/>
<path d="M0.000778198 159.01H37.7441V164.571H0.000778198V159.01Z" fill="#EBEBEB"/>
<path d="M6.03491 164.69H43.0684V308.682H6.03491V164.69Z" fill="#DBDBDB"/>
<path d="M54.8999 176.167H140.325V224.322H54.8999V176.167Z" stroke="#C7C7C7" stroke-width="0.25" stroke-miterlimit="10"/>
<path d="M92.8797 190.246H109.562V199.83H92.8797V190.246Z" fill="#C7C7C7"/>
<path d="M88.0292 190.956H104.712V199.12H88.0292V190.956Z" stroke="#C7C7C7" stroke-width="0.25" stroke-miterlimit="10"/>
<path d="M54.8999 237.1H140.325V285.255H54.8999V237.1Z" stroke="#C7C7C7" stroke-width="0.25" stroke-miterlimit="10"/>
<path d="M92.8797 251.062H109.562V260.645H92.8797V251.062Z" fill="#C7C7C7"/>
<path d="M88.0292 251.889H104.712V260.053H88.0292V251.889Z" stroke="#C7C7C7" stroke-width="0.25" stroke-miterlimit="10"/>
<path d="M488.534 308.328L427.601 308.091L366.785 307.973L245.155 307.736L123.524 307.973L62.7089 308.091L1.89365 308.328L62.7089 308.682L123.524 308.801L245.155 308.919L366.785 308.801L427.601 308.682L488.534 308.328Z" fill="#29246A"/>
<path d="M390.448 173.681C394.708 169.54 400.268 164.452 406.776 166.227C412.928 167.883 415.295 174.627 416.36 180.188C417.779 187.406 418.844 194.623 420.028 201.84C421.211 209.176 422.276 216.512 423.34 223.729C423.932 227.87 424.524 232.011 425.115 236.153C425.352 238.164 425.707 240.294 425.943 242.305C426.18 244.316 426.535 246.328 426.653 248.458C426.653 249.049 425.707 249.168 425.47 248.576C424.642 245.145 424.405 241.595 423.814 238.046C423.34 234.496 422.749 231.065 422.276 227.515C421.211 220.535 420.146 213.554 419.199 206.573C418.134 199.592 417.07 192.612 415.886 185.631C414.94 179.715 414.467 172.379 409.261 168.475C406.421 166.345 402.753 166.345 399.44 167.528C396.009 168.83 393.288 171.315 390.566 173.799C390.566 173.917 390.33 173.799 390.448 173.681Z" fill="#29246A"/>
<path d="M396.246 169.422C396.246 169.422 405.002 166.345 409.261 172.616C413.52 179.005 408.433 195.097 368.796 204.207C368.796 204.207 369.861 186.933 378.38 168.357C386.899 149.899 402.044 156.998 396.246 169.422Z" fill="url(#paint0_linear_6948_37315)"/>
<path d="M371.044 201.604C371.635 200.539 372.345 199.474 373.055 198.409C373.765 197.344 374.357 196.398 375.067 195.333C375.54 194.623 376.132 193.795 376.605 193.085C376.605 192.848 376.605 192.73 376.487 192.493C376.487 192.138 376.368 191.783 376.368 191.428C376.25 190.718 376.132 189.89 376.013 189.18C375.895 188.47 375.777 187.76 375.658 186.932C375.54 186.222 375.422 185.276 375.185 184.566C375.185 184.448 375.303 184.448 375.303 184.566C375.303 185.039 375.54 185.394 375.658 185.867C375.777 186.222 375.895 186.577 375.895 186.814C376.132 187.524 376.25 188.352 376.487 189.062C376.605 189.772 376.723 190.482 376.841 191.192C376.841 191.547 376.96 191.902 376.96 192.257C377.67 191.192 378.38 190.245 379.09 189.299C381.219 186.577 383.467 183.856 385.715 181.253C385.715 181.253 385.715 181.253 385.715 181.135C385.479 176.994 385.597 172.852 384.65 168.711C384.65 168.593 384.769 168.593 384.769 168.593C385.597 172.379 386.544 176.52 386.307 180.425C387.135 179.478 387.963 178.532 388.792 177.703C390.685 175.574 392.696 173.562 394.707 171.551C394.826 171.433 394.944 171.551 394.826 171.669C391.513 175.219 388.318 179.005 385.242 182.791C387.608 182.673 390.093 182.909 392.459 183.028C395.181 183.264 397.784 183.619 400.505 183.974C400.623 183.974 400.623 184.211 400.505 184.093C397.902 183.738 395.181 183.501 392.459 183.383C389.856 183.264 387.253 183.383 384.769 183.383C383.112 185.512 381.456 187.524 379.799 189.654C379.918 189.654 380.036 189.654 380.154 189.654C380.746 189.654 381.338 189.654 381.929 189.654C383.112 189.654 384.295 189.772 385.597 189.89C388.082 190.127 390.448 190.482 392.933 190.955C393.051 190.955 393.051 191.192 392.933 191.073C390.448 190.837 388.082 190.6 385.597 190.482C384.414 190.482 383.231 190.482 382.047 190.482C381.456 190.482 380.864 190.482 380.273 190.482C379.918 190.482 379.563 190.482 379.326 190.363C378.261 191.783 377.196 193.085 376.132 194.505C375.303 195.569 374.475 196.753 373.647 197.817C372.819 199.001 372.109 200.184 371.162 201.249C371.162 201.84 371.044 201.722 371.044 201.604Z" fill="#29246A"/>
<path d="M392.46 178.414C393.88 178.177 395.299 178.177 396.719 178.177C398.139 178.177 399.559 178.177 400.979 178.295C401.097 178.295 401.097 178.532 400.979 178.414C399.559 178.295 398.139 178.295 396.719 178.295C395.299 178.414 393.88 178.532 392.46 178.414C392.46 178.532 392.46 178.414 392.46 178.414Z" fill="#29246A"/>
<path d="M380.036 181.608C379.918 180.307 379.681 178.887 379.445 177.585C379.445 177.467 379.563 177.467 379.563 177.585C379.8 178.887 380.036 180.188 380.273 181.608C380.391 182.318 380.509 182.91 380.509 183.619C380.628 184.211 380.746 184.921 380.628 185.513C380.628 185.631 380.391 185.631 380.391 185.513C380.273 184.921 380.273 184.211 380.154 183.619C380.154 182.91 380.154 182.318 380.036 181.608Z" fill="#29246A"/>
<path d="M382.64 166.7C382.995 168.002 383.349 169.303 383.586 170.723C383.704 171.433 383.823 172.143 383.941 172.734C384.059 173.444 384.178 174.036 384.059 174.746H383.941C383.704 174.154 383.704 173.444 383.586 172.853C383.468 172.143 383.349 171.551 383.231 170.841C382.995 169.421 382.758 168.12 382.403 166.7C382.521 166.582 382.64 166.582 382.64 166.7Z" fill="#29246A"/>
<path d="M434.345 247.038C434.581 244.554 434.818 242.069 435.055 239.584C435.528 234.615 436.238 229.764 436.829 224.795C437.539 219.944 438.131 214.974 438.959 210.123C439.314 207.875 439.669 205.627 440.497 203.497C441.207 201.604 442.272 199.948 444.165 199.356C448.78 197.7 451.974 202.551 453.867 205.982C453.867 206.1 453.749 206.219 453.749 206.1C452.566 204.444 449.489 199.948 445.94 200.185C443.574 200.303 441.68 201.959 440.497 207.993C437.658 222.783 435.055 252.836 434.818 254.729C434.7 255.794 433.872 255.676 433.872 254.611C433.753 252.008 434.108 249.523 434.345 247.038Z" fill="#29246A"/>
<path d="M452.565 203.971C452.565 203.971 448.542 189.536 457.535 196.754C472.561 208.704 473.034 234.852 473.034 234.852C473.034 234.852 446.294 219.352 442.981 209.177C438.13 193.914 452.565 203.971 452.565 203.971Z" fill="url(#paint1_linear_6948_37315)"/>
<path d="M447.478 211.069C449.608 211.543 451.738 211.779 453.749 212.134C454.695 212.253 455.76 212.371 456.707 212.607C457.417 212.726 458.008 212.726 458.718 212.844C456.707 210.123 454.695 207.401 452.802 204.562C452.684 204.444 452.921 204.325 453.039 204.444C454.577 206.1 456.115 207.756 457.535 209.531C457.89 208.466 458.363 207.283 458.718 206.218C459.192 204.917 459.665 203.615 460.02 202.314C460.02 202.196 460.256 202.196 460.138 202.314C459.783 203.615 459.546 205.035 459.192 206.337C458.837 207.638 458.482 208.821 458.008 210.123C458.955 211.424 459.901 212.726 460.848 214.027C461.321 212.726 461.913 211.424 462.268 210.123C462.268 210.004 462.504 210.123 462.386 210.123C461.913 211.543 461.676 213.081 461.203 214.619C461.795 215.565 462.386 216.394 462.978 217.34C464.043 218.997 465.107 220.653 466.054 222.428C466.172 222.546 466.291 222.664 466.291 222.783C467.947 225.741 469.603 228.699 471.142 231.657C471.142 231.775 471.023 231.893 471.023 231.775C469.485 228.817 467.71 225.977 465.817 223.138C465.581 223.019 465.226 223.019 464.989 223.019C464.634 222.901 464.397 222.901 464.043 222.783C463.333 222.664 462.623 222.428 462.031 222.31C460.73 221.955 459.31 221.6 458.008 221.363C457.89 221.363 457.89 221.126 458.008 221.245C459.665 221.6 461.203 221.718 462.859 221.955C463.688 222.073 464.397 222.191 465.107 222.31H465.226C464.279 220.89 463.333 219.352 462.268 217.932C461.321 216.512 460.256 215.092 459.31 213.791C458.363 213.672 457.417 213.436 456.589 213.199C455.524 212.962 454.577 212.844 453.512 212.607C451.501 212.252 449.371 211.779 447.36 211.424C447.36 211.188 447.36 211.069 447.478 211.069Z" fill="#29246A"/>
<path d="M463.569 212.49C463.687 212.135 463.806 211.78 463.924 211.307C464.161 210.478 464.397 209.769 464.516 208.94C464.516 208.822 464.752 208.822 464.634 208.94C464.516 209.769 464.279 210.597 464.042 211.425C463.806 212.253 463.687 213.081 463.332 213.791C463.214 214.028 462.977 213.91 462.977 213.673C463.214 213.318 463.332 212.963 463.569 212.49Z" fill="#29246A"/>
<path d="M444.757 207.757C445.94 207.993 447.242 207.993 448.425 208.112C449.608 208.23 450.91 208.348 452.093 208.585C452.211 208.585 452.211 208.703 452.093 208.703C450.91 208.585 449.608 208.467 448.425 208.348C447.242 208.23 445.94 207.993 444.757 207.875C444.639 207.875 444.639 207.757 444.757 207.757Z" fill="#29246A"/>
<path d="M414.703 228.817C415.177 218.169 415.887 207.639 416.952 197.108C417.425 191.902 418.135 186.578 418.845 181.372C419.555 176.284 420.501 171.078 421.921 166.109C422.986 162.323 424.406 158.418 427.009 155.342C429.493 152.266 433.279 150.373 437.302 150.846C441.917 151.438 445.703 154.396 448.897 157.472C452.565 161.021 455.878 164.926 459.191 168.712C460.019 169.659 460.847 170.605 461.676 171.67C461.794 171.788 461.676 171.907 461.557 171.788C458.244 168.002 454.813 164.334 451.264 160.903C447.951 157.709 444.52 154.159 440.023 152.739C437.894 152.148 435.646 151.911 433.516 152.621C431.741 153.094 430.321 154.159 429.02 155.461C426.417 158.182 424.997 161.731 423.932 165.281C421.093 174.983 420.028 185.277 418.963 195.334C417.898 205.509 417.188 215.803 416.597 226.096C416.123 236.39 415.65 246.802 414.703 256.977C414.585 258.279 414.467 259.462 414.23 260.763C414.112 261.591 412.81 261.591 412.929 260.763C413.757 250.115 414.23 239.466 414.703 228.817Z" fill="#29246A"/>
<path d="M449.252 158.655C449.252 158.655 443.218 147.415 450.317 143.865C457.416 140.316 481.434 166.937 488.415 206.101C488.415 206.101 449.725 188.944 436.592 171.907C423.577 154.869 438.485 151.201 449.252 158.655Z" fill="url(#paint2_linear_6948_37315)"/>
<path d="M443.573 167.765C447.951 167.765 452.21 167.41 456.588 167.41C455.76 166.464 454.931 165.517 454.103 164.571C452.92 163.269 451.618 162.086 450.672 160.666C450.554 160.548 450.79 160.43 450.79 160.548C451.973 161.494 453.038 162.678 454.103 163.861C455.168 165.044 456.233 166.227 457.298 167.292C458.954 169.067 460.611 170.96 462.267 172.735C462.267 172.498 462.267 172.38 462.267 172.261C462.267 171.551 462.267 170.723 462.267 170.013C462.267 168.593 462.267 167.055 462.267 165.636C462.267 162.678 462.267 159.601 462.03 156.643C462.03 156.525 462.149 156.525 462.267 156.643C462.504 159.601 462.74 162.678 462.977 165.636C463.095 167.055 463.095 168.593 463.095 170.013C463.095 170.723 463.095 171.551 463.095 172.261C463.095 172.735 463.095 173.09 463.095 173.563C463.332 173.799 463.568 174.154 463.805 174.391C467.236 178.296 470.549 182.437 473.744 186.578C473.744 186.341 473.744 186.105 473.744 185.868C473.744 185.395 473.862 184.921 473.862 184.448C473.98 183.502 474.099 182.437 474.217 181.49C474.335 180.544 474.454 179.597 474.69 178.651C474.809 177.586 475.164 176.521 475.164 175.456C475.164 175.338 475.4 175.338 475.282 175.456C475.045 176.521 475.045 177.586 474.927 178.651C474.809 179.597 474.69 180.544 474.69 181.49C474.572 182.437 474.572 183.383 474.454 184.33C474.454 184.803 474.335 185.276 474.335 185.75C474.335 185.986 474.335 186.223 474.217 186.459C474.217 186.814 474.099 186.814 473.98 187.051C474.572 187.761 475.045 188.471 475.637 189.181C477.885 192.139 480.015 194.978 482.144 197.936C482.263 198.055 482.144 198.173 482.026 198.055C480.015 195.452 477.885 192.73 475.755 190.246C474.217 190.364 472.561 190.246 470.904 190.127C469.248 190.127 467.591 190.127 465.817 190.127C465.698 190.127 465.698 189.891 465.817 189.891C467.473 189.891 469.129 189.891 470.904 190.009C472.442 190.009 473.98 189.891 475.519 190.009C473.625 187.761 471.732 185.513 469.839 183.265C469.129 182.437 468.42 181.608 467.71 180.78C467.118 180.899 466.408 180.899 465.817 180.899C465.107 180.899 464.278 180.899 463.568 180.899C462.149 180.899 460.729 180.899 459.309 180.78C456.351 180.78 453.393 180.662 450.435 180.662C450.317 180.662 450.317 180.425 450.435 180.425C453.393 180.425 456.351 180.307 459.309 180.189C460.729 180.189 462.149 180.07 463.568 180.07C464.278 180.07 465.107 180.07 465.817 180.07C466.29 180.07 466.645 180.07 467.118 180.07C465.462 178.177 463.923 176.166 462.267 174.273C462.267 174.273 462.149 174.273 462.149 174.154C460.611 172.261 458.954 170.368 457.416 168.594C457.179 168.357 456.943 168.12 456.706 167.884C452.21 168.002 447.714 167.765 443.218 167.765C443.454 168.002 443.454 167.765 443.573 167.765Z" fill="#29246A"/>
<path d="M445.821 175.456C446.176 175.456 446.531 175.456 446.886 175.456C447.004 175.456 447.004 175.575 446.886 175.575C446.531 175.575 446.176 175.575 445.821 175.575C445.703 175.693 445.703 175.456 445.821 175.456Z" fill="#29246A"/>
<path d="M448.187 175.574C449.607 175.574 451.026 175.574 452.328 175.456C453.038 175.456 453.748 175.456 454.458 175.338C455.049 175.338 455.759 175.219 456.351 175.338C456.469 175.338 456.351 175.456 456.351 175.456C455.759 175.693 455.049 175.574 454.458 175.574C453.748 175.574 453.038 175.574 452.328 175.574C450.908 175.574 449.488 175.574 448.187 175.574C448.068 175.693 448.068 175.574 448.187 175.574Z" fill="#29246A"/>
<path d="M460.374 188.589C463.213 188.234 466.053 187.761 468.893 187.761C468.893 187.761 468.893 187.761 468.893 187.879C466.053 188.116 463.213 188.353 460.374 188.708C460.255 188.708 460.255 188.589 460.374 188.589Z" fill="#29246A"/>
<path d="M471.969 176.166C471.969 175.929 471.969 175.693 472.088 175.456C472.206 174.865 472.206 174.391 472.324 173.8C472.443 172.735 472.679 171.67 472.916 170.605C472.916 170.487 473.153 170.487 473.034 170.605C472.916 171.67 472.798 172.735 472.679 173.918C472.679 174.51 472.561 174.983 472.561 175.574C472.561 176.048 472.561 176.639 472.324 177.113C472.206 177.231 471.969 177.231 471.969 177.113C471.851 176.639 471.969 176.403 471.969 176.166Z" fill="#29246A"/>
<path d="M415.058 144.339C416.478 141.736 418.253 138.305 421.684 138.541C424.524 138.778 425.825 141.617 426.417 143.984C428.31 151.438 428.428 159.247 428.783 166.937C429.611 183.029 430.203 199.238 430.321 215.329C430.321 219.825 430.321 224.321 430.321 228.699C430.321 233.314 430.321 237.81 429.966 242.424C429.966 242.897 429.256 242.897 429.256 242.424C429.256 238.52 429.375 234.615 429.375 230.711C429.375 226.924 429.375 223.138 429.256 219.234C429.138 211.543 428.901 203.852 428.665 196.162C428.428 188.471 428.073 180.899 427.718 173.208C427.6 169.422 427.363 165.518 427.245 161.731C427.127 158.064 426.89 154.277 426.535 150.61C426.298 148.598 425.944 146.468 425.589 144.457C425.234 143.037 424.879 141.381 423.814 140.316C422.394 138.896 420.383 138.896 418.726 139.961C417.07 141.026 416.005 142.682 415.177 144.457C415.177 144.575 414.94 144.457 415.058 144.339Z" fill="#29246A"/>
<path d="M416.005 143.037C416.005 143.037 418.845 132.98 412.574 138.068C402.162 146.468 401.807 164.571 401.807 164.571C401.807 164.571 420.383 153.804 422.749 146.705C426.062 136.056 416.005 143.037 416.005 143.037Z" fill="url(#paint3_linear_6948_37315)"/>
<path d="M405.594 157.117C405.712 156.881 405.949 156.526 406.067 156.289C406.067 156.053 406.067 155.698 406.067 155.461C406.067 154.988 406.067 154.633 406.067 154.159C406.067 153.331 406.067 152.503 405.949 151.675C405.949 151.556 406.067 151.556 406.185 151.675C406.185 152.503 406.303 153.331 406.303 154.159C406.303 154.633 406.303 154.988 406.303 155.461C406.303 155.579 406.303 155.816 406.303 156.053C407.013 154.869 407.723 153.805 408.552 152.74C408.788 152.385 409.025 152.148 409.261 151.793C409.38 150.728 409.38 149.545 409.261 148.48C409.261 147.297 409.261 146.114 409.143 144.931C409.143 144.812 409.261 144.812 409.38 144.931C409.38 146.114 409.498 147.297 409.498 148.599C409.498 149.427 409.616 150.373 409.616 151.202C411.391 148.717 413.284 146.469 415.296 144.102C415.414 143.984 415.532 144.102 415.414 144.221C414.231 145.759 413.048 147.297 411.983 148.835C414.112 148.362 416.36 148.007 418.609 147.652C418.727 147.652 418.727 147.77 418.609 147.77C416.242 148.125 413.994 148.717 411.628 149.19C410.681 150.492 409.853 151.675 409.025 152.976C408.67 153.45 408.315 154.041 407.96 154.514H408.078C408.315 154.514 408.552 154.396 408.788 154.396C409.261 154.278 409.853 154.278 410.326 154.278C411.391 154.159 412.456 154.159 413.521 154.041C413.639 154.041 413.639 154.159 413.521 154.278C412.456 154.278 411.391 154.396 410.326 154.514C409.735 154.633 409.261 154.633 408.67 154.751C408.433 154.751 408.197 154.751 407.96 154.869C407.842 154.869 407.842 154.869 407.723 154.869C407.132 155.698 406.54 156.644 405.949 157.472C404.884 159.011 403.937 160.667 402.872 162.205C402.754 162.323 402.636 162.205 402.754 162.087C403.582 160.312 404.647 158.774 405.594 157.117Z" fill="#29246A"/>
<path d="M410.208 145.759C410.208 145.404 410.208 144.93 410.208 144.575C410.208 143.747 410.208 142.919 410.09 142.091C410.09 141.972 410.208 141.972 410.208 142.091C410.208 142.919 410.326 143.747 410.326 144.575C410.326 144.93 410.326 145.404 410.326 145.759C410.326 145.995 410.326 146.113 410.326 146.35C410.326 146.587 410.326 146.705 410.326 146.942C410.326 147.06 410.208 147.06 410.208 146.942C410.208 146.823 410.208 146.587 410.208 146.35C410.208 146.232 410.208 145.995 410.208 145.759Z" fill="#29246A"/>
<path d="M412.575 150.018C413.284 149.9 413.994 149.9 414.704 149.782C415.414 149.663 416.242 149.663 416.952 149.545C417.071 149.545 417.071 149.663 416.952 149.663C415.532 149.782 413.994 150.018 412.575 150.018C412.456 150.018 412.456 150.137 412.575 150.018Z" fill="#29246A"/>
<path d="M406.776 150.018C406.776 150.136 406.776 150.255 406.776 150.373V150.728C406.776 150.964 406.776 151.201 406.776 151.438C406.776 151.674 406.776 151.911 406.776 152.148C406.776 152.384 406.776 152.621 406.776 152.739C406.776 152.739 406.776 152.739 406.657 152.739C406.657 152.621 406.657 152.503 406.657 152.503C406.657 152.384 406.657 152.266 406.657 152.148C406.657 151.911 406.657 151.674 406.657 151.438C406.657 151.201 406.657 150.964 406.657 150.728V150.373C406.657 150.255 406.657 150.018 406.657 150.018C406.421 149.9 406.894 149.9 406.776 150.018Z" fill="#29246A"/>
<path d="M414.585 197.818C418.489 194.86 422.039 190.719 427.245 190.482C431.622 190.364 434.58 193.558 436.355 197.226C437.301 199.119 437.893 201.131 438.485 203.26C439.313 205.982 440.023 208.821 440.733 211.543C442.153 216.985 443.217 222.546 444.164 227.989C444.637 231.065 445.229 234.141 445.584 237.336C445.939 240.412 446.53 243.725 446.53 246.801C446.53 247.393 445.702 247.511 445.584 246.92C445.11 244.317 444.874 241.595 444.401 238.992C444.046 236.389 443.572 233.668 443.217 231.065C442.271 225.859 441.324 220.535 440.141 215.329C439.076 210.36 437.893 205.39 436.355 200.658C435.172 197.226 433.397 193.203 429.729 192.02C424.05 190.127 418.962 194.86 414.821 198.055C414.703 198.055 414.585 197.936 414.585 197.818Z" fill="#29246A"/>
<path d="M418.608 194.979C418.608 194.979 422.157 184.685 416.951 182.674C409.142 179.597 388.673 202.669 392.696 237.928C392.696 237.928 408.432 229.172 420.146 219.47C431.859 209.65 434.817 196.872 429.611 193.559C424.642 190.364 418.608 194.979 418.608 194.979Z" fill="url(#paint4_linear_6948_37315)"/>
<path d="M395.181 230.474C395.654 229.291 396.482 228.108 397.074 226.924C397.784 225.741 398.375 224.558 399.085 223.375C400.387 221.008 401.807 218.76 403.226 216.394C403.463 216.039 403.7 215.684 403.936 215.329C403.936 215.211 403.936 215.093 403.818 214.974C403.7 214.619 403.7 214.264 403.581 213.909C403.463 213.199 403.226 212.371 403.108 211.543C402.871 210.005 402.516 208.467 402.161 207.047C402.161 206.929 402.28 206.929 402.28 207.047C402.635 208.585 403.108 210.005 403.581 211.543C403.818 212.253 404.055 212.963 404.173 213.673C404.291 213.909 404.291 214.146 404.409 214.383C406.066 211.661 407.841 208.94 409.615 206.219C409.497 205.864 409.497 205.509 409.379 205.036C409.379 204.562 409.261 203.971 409.142 203.497C409.024 202.314 408.906 201.131 408.669 200.066C408.314 197.818 407.959 195.57 407.486 193.322C407.486 193.204 407.604 193.204 407.604 193.322C408.196 195.57 408.787 197.818 409.142 200.066C409.379 201.131 409.497 202.314 409.734 203.379C409.852 203.971 409.852 204.444 409.97 205.036C409.97 205.154 409.97 205.391 410.089 205.509C410.68 204.681 411.272 203.852 411.864 203.142C413.638 200.776 415.531 198.41 417.424 196.162C417.543 196.043 417.661 196.162 417.543 196.28C414.23 200.303 411.39 204.799 408.669 209.295C408.196 210.123 407.604 210.951 407.131 211.78C407.249 211.78 407.486 211.78 407.604 211.661C408.314 211.543 408.906 211.543 409.615 211.425C410.917 211.306 412.218 211.188 413.638 211.07C416.241 210.833 418.963 210.715 421.566 210.36C421.684 210.36 421.684 210.478 421.566 210.478C418.844 210.833 416.241 211.188 413.52 211.543C412.218 211.78 410.917 211.898 409.615 212.016C408.669 212.135 407.604 212.371 406.539 212.371C405.474 214.028 404.409 215.802 403.345 217.459C403.581 217.459 403.818 217.459 404.055 217.459C404.528 217.459 404.883 217.459 405.356 217.459C406.184 217.459 407.012 217.459 407.841 217.459C409.497 217.459 411.272 217.459 412.928 217.459C413.047 217.459 413.047 217.577 412.928 217.696C411.154 217.696 409.497 217.814 407.722 217.932C406.894 217.932 406.066 218.051 405.238 218.051C404.883 218.051 404.41 218.169 404.055 218.169C403.7 218.169 403.345 218.287 402.99 218.169C402.161 219.589 401.215 221.008 400.268 222.547C399.44 223.848 398.612 225.268 397.784 226.569C396.955 227.871 396.127 229.409 395.062 230.592C395.299 230.592 395.181 230.592 395.181 230.474Z" fill="#29246A"/>
<path d="M402.753 201.959C402.871 203.142 403.226 204.207 403.463 205.272C403.699 206.455 404.054 207.52 404.409 208.703C404.409 208.822 404.291 208.94 404.173 208.822C403.818 207.757 403.463 206.574 403.226 205.509C402.989 204.326 402.753 203.261 402.516 202.078C402.516 201.841 402.634 201.841 402.753 201.959Z" fill="#29246A"/>
<path d="M414.348 208.821C414.585 208.585 414.822 208.585 415.177 208.466C415.65 208.348 416.123 208.348 416.715 208.23C417.661 208.111 418.608 207.993 419.436 207.875C421.329 207.638 423.34 207.52 425.234 207.165C425.352 207.165 425.352 207.283 425.234 207.283C423.459 207.52 421.566 207.756 419.791 207.993C418.844 208.111 418.016 208.23 417.07 208.348C416.596 208.348 416.241 208.466 415.768 208.466C415.295 208.466 414.703 208.466 414.348 208.703C414.348 208.94 414.23 208.821 414.348 208.821Z" fill="#29246A"/>
<path d="M402.753 224.321C403.7 224.203 404.528 224.203 405.475 224.203C405.948 224.203 406.421 224.203 406.895 224.203C407.131 224.203 407.368 224.203 407.605 224.203C407.841 224.203 408.196 224.203 408.433 224.203C408.551 224.203 408.551 224.44 408.433 224.321C408.196 224.321 407.841 224.321 407.605 224.321C407.368 224.321 407.131 224.321 406.895 224.321C406.421 224.321 405.948 224.321 405.475 224.44C404.528 224.44 403.7 224.558 402.753 224.558C402.635 224.558 402.635 224.321 402.753 224.321Z" fill="#29246A"/>
<path d="M397.192 220.417C397.073 219.943 396.955 219.352 396.837 218.879C396.6 217.814 396.482 216.867 396.245 215.802C396.245 215.684 396.364 215.684 396.364 215.802C396.6 216.749 396.837 217.814 397.073 218.76C397.192 219.234 397.31 219.707 397.428 220.298C397.428 220.535 397.547 220.772 397.547 221.008C397.547 221.245 397.665 221.482 397.665 221.718C397.665 221.837 397.547 221.837 397.428 221.837C397.31 221.363 397.192 220.772 397.192 220.417Z" fill="#29246A"/>
<path d="M404.882 250.706L405.71 265.377L408.313 308.327H452.446L455.049 265.377L455.877 250.706H404.882Z" fill="#37474F"/>
<path d="M404.882 250.706L405.71 265.377H455.049L455.877 250.706H404.882Z" fill="#29246A"/>
<path d="M400.86 240.412H460.019V254.965H400.86V240.412Z" fill="#37474F"/>
<path d="M245.154 382.867C127.468 382.867 32.0639 374.55 32.0639 364.291C32.0639 354.032 127.468 345.715 245.154 345.715C362.84 345.715 458.244 354.032 458.244 364.291C458.244 374.55 362.84 382.867 245.154 382.867Z" fill="#EBEBEB"/>
<path d="M282.661 217.459L279.585 235.799L258.879 347.727H255.566L270.593 235.799L272.841 217.459H282.661Z" fill="#C7C7C7"/>
<path d="M272.841 217.459H282.661L279.585 235.799H270.593L272.841 217.459Z" fill="#A6A6A6"/>
<path d="M347.735 347.727H344.422L323.717 235.799L320.641 217.46H330.461L332.709 235.799L347.735 347.727Z" fill="#C7C7C7"/>
<path d="M330.461 217.459L332.709 235.799H323.717L320.641 217.459H330.461Z" fill="#A6A6A6"/>
<path d="M409.971 347.727H406.658L385.834 235.799L382.876 217.46H392.696L394.826 235.799L409.971 347.727Z" fill="#C7C7C7"/>
<path d="M394.826 235.799H385.834L382.876 217.459H392.696L394.826 235.799Z" fill="#A6A6A6"/>
<path d="M404.646 226.097H252.727V210.124H309.637L328.687 119.611H398.849L404.646 226.097Z" fill="#C7C7C7"/>
<path d="M395.773 210.124H252.727V226.097H396.364L395.773 210.124Z" fill="#DBDBDB"/>
<path d="M404.646 226.097H396.364L390.922 119.611H398.849L404.646 226.097Z" fill="#DBDBDB"/>
<path d="M229.536 368.669C232.494 368.906 312.595 349.738 315.08 347.135C315.435 346.899 313.778 339.563 311.53 329.624V329.388C310.111 323.117 286.684 272.24 286.684 272.24L234.742 286.793L258.406 334.002C258.406 334.002 248.585 341.101 240.303 347.727C235.097 351.868 230.719 355.536 229.773 356.719C227.17 360.032 226.578 368.432 229.536 368.669Z" fill="url(#paint5_linear_6948_37315)"/>
<path d="M229.536 368.669C232.494 368.906 312.477 349.738 315.08 347.254C315.435 347.017 313.778 339.681 311.53 329.743V329.506C310.939 327.14 307.389 318.621 303.13 308.8C294.611 311.048 263.967 319.449 252.845 322.88L258.406 334.12C258.406 334.12 248.704 341.219 240.303 347.845C235.097 351.986 230.719 355.654 229.773 356.837C227.17 360.032 226.578 368.433 229.536 368.669Z" fill="white"/>
<path d="M229.299 369.142C232.376 369.379 312.477 349.975 315.08 347.372C316.026 346.307 314.251 333.765 309.874 320.277L258.287 332.819C258.287 332.819 231.902 353.761 229.418 356.955C226.815 360.15 226.223 368.787 229.299 369.142Z" fill="url(#paint6_linear_6948_37315)"/>
<path d="M229.655 365.593C243.025 362.043 297.214 348.792 310.702 346.307C310.821 346.307 310.821 346.307 310.702 346.425C297.569 350.212 243.261 362.99 229.773 365.83C229.418 365.948 229.3 365.711 229.655 365.593Z" fill="#29246A"/>
<path d="M233.678 352.814C236.872 351.868 240.303 352.696 242.551 354.116C244.681 355.536 246.693 357.784 247.284 360.505C247.284 360.623 247.166 360.623 247.166 360.505C245.154 355.417 239.239 351.986 233.796 352.814C233.678 353.051 233.678 352.814 233.678 352.814Z" fill="#29246A"/>
<path d="M254.264 335.185C259.589 333.765 266.333 334.238 270.71 337.788C270.829 337.906 270.71 338.143 270.474 338.143C265.031 336.841 259.944 336.013 254.264 335.895C253.909 335.895 253.909 335.303 254.264 335.185Z" fill="#29246A"/>
<path d="M250.478 337.788C255.802 336.368 262.547 336.842 266.924 340.391C267.043 340.51 266.924 340.746 266.688 340.746C261.245 339.445 256.157 338.617 250.478 338.498C250.123 338.498 250.123 337.907 250.478 337.788Z" fill="#29246A"/>
<path d="M246.811 340.391C252.135 338.971 258.88 339.445 263.257 342.994C263.376 343.112 263.257 343.349 263.021 343.349C257.578 342.048 252.49 341.219 246.811 341.101C246.456 341.101 246.338 340.509 246.811 340.391Z" fill="#29246A"/>
<path d="M243.024 342.994C248.348 341.574 255.092 342.048 259.47 345.597C259.589 345.715 259.47 345.952 259.234 345.952C253.791 344.651 248.703 343.822 243.024 343.704C242.669 343.704 242.669 343.112 243.024 342.994Z" fill="#29246A"/>
<path d="M304.077 334.475C310.111 333.055 312.359 342.402 306.325 343.822C300.29 345.242 298.042 335.895 304.077 334.475Z" fill="#29246A"/>
<path d="M245.036 322.288C247.166 319.33 251.189 320.75 253.437 322.643C257.105 325.838 260.181 330.689 261.601 335.185C261.601 335.303 261.601 335.421 261.482 335.421C261.482 335.776 261.127 336.25 260.654 336.131C256.158 334.357 251.189 333.173 247.402 330.097C245.154 328.204 242.906 325.01 245.036 322.288ZM254.383 332.109C256.513 333.055 258.761 333.765 260.891 334.83C259.234 332.345 257.814 329.861 255.921 327.613C255.093 326.548 254.147 325.364 253.082 324.418C251.544 322.88 245.154 319.685 245.983 325.719C246.456 328.914 251.78 331.044 254.383 332.109Z" fill="#29246A"/>
<path d="M275.444 334.002C270.948 335.895 265.742 335.658 261.009 336.132C260.536 336.132 260.299 335.658 260.417 335.303C260.299 335.303 260.299 335.185 260.299 335.067C262.902 331.044 267.28 327.258 271.657 325.365C274.379 324.182 278.52 323.945 279.821 327.376C281.005 330.334 278.047 332.937 275.444 334.002ZM277.928 330.097C280.413 324.655 273.432 325.956 271.539 326.903C270.238 327.494 269.054 328.323 267.871 329.151C265.505 330.807 263.257 332.819 261.127 334.712C263.494 334.357 265.742 334.239 268.108 334.002C270.948 333.647 276.508 333.174 277.928 330.097Z" fill="#29246A"/>
<path d="M252.49 329.743L308.099 313.06C308.099 313.06 262.31 217.578 263.73 212.727C264.677 209.532 333.419 209.295 353.533 191.193C374.357 172.499 358.148 135.702 358.148 135.702L300.409 135.347C300.409 135.347 301.355 147.415 299.225 149.308C297.806 150.61 218.769 157.472 203.625 186.578C189.782 212.963 252.49 329.743 252.49 329.743Z" fill="#29246A"/>
<path d="M263.612 212.726C263.375 213.554 264.44 216.986 266.57 222.073L225.04 273.068C210.251 239.348 196.289 200.421 203.506 186.578C218.651 157.59 297.569 150.609 299.107 149.308C301.355 147.415 300.29 135.346 300.29 135.346L336.969 135.583L276.035 210.478C268.699 211.306 263.848 211.898 263.612 212.726Z" fill="#29246A"/>
<path d="M251.07 318.029C252.49 317.319 254.146 316.845 255.566 316.372C257.222 315.781 258.76 315.307 260.417 314.716C263.612 313.651 266.806 312.704 270.001 311.758C276.508 309.983 282.897 308.09 289.405 306.433C292.836 305.605 300.053 303.712 300.527 303.712C300.763 303.712 300.763 304.067 300.645 304.185C294.374 306.433 287.985 308.327 281.596 310.338C275.207 312.231 268.817 314.242 262.428 315.781C260.654 316.254 258.879 316.609 257.104 317.082C255.211 317.555 253.318 318.147 251.425 318.265C251.07 318.502 250.833 318.147 251.07 318.029Z" fill="#455A64"/>
<path d="M354.953 146.705C354.716 144.812 354.598 142.8 354.361 140.907C354.361 140.671 354.006 140.671 354.006 140.907C354.835 148.716 355.545 156.762 354.125 164.452C352.823 171.788 349.155 178.059 343.831 183.147C332.354 193.795 316.381 196.99 301.473 199.474C292.955 200.894 284.317 202.077 275.68 202.906C271.421 203.379 267.161 203.616 263.02 203.971C258.761 204.207 254.62 204.325 250.36 204.562C249.059 204.68 247.875 205.272 248.112 206.81C248.23 207.757 248.704 208.585 249.177 209.413C249.65 210.478 250.124 211.425 250.478 212.489C252.135 216.276 253.91 220.062 255.566 223.966C259.116 231.775 262.665 239.584 266.215 247.393C273.432 262.893 280.886 278.274 288.577 293.419C289.523 295.312 290.47 297.205 291.416 299.098C291.535 299.216 291.653 299.098 291.653 298.98C284.317 283.598 276.982 268.099 269.764 252.599C266.215 244.908 262.665 237.218 259.116 229.527C257.341 225.623 255.566 221.836 253.91 217.932C253.081 216.039 252.135 214.028 251.307 212.134C250.833 211.188 250.478 210.241 250.005 209.176C249.65 208.348 248.349 206.455 249.295 205.745C249.887 205.272 251.188 205.39 251.898 205.39C252.963 205.39 254.146 205.272 255.211 205.272C257.341 205.154 259.471 205.154 261.6 205.035C265.86 204.799 270.238 204.562 274.497 204.207C282.898 203.497 291.298 202.432 299.58 201.131C314.37 198.765 330.58 196.043 342.411 186.105C347.617 181.727 351.758 176.048 353.77 169.54C355.9 162.086 355.663 154.277 354.953 146.705Z" fill="#455A64"/>
<path d="M107.433 295.549C109.562 297.679 183.393 333.884 187.061 333.529C187.534 333.529 190.847 326.903 195.461 317.793V317.556C198.301 311.759 224.686 263.248 224.686 263.248L178.66 239.94L151.684 287.148C151.684 287.148 139.615 286.32 128.967 286.202C122.341 286.084 116.543 286.084 115.123 286.439C111.101 287.385 105.303 293.419 107.433 295.549Z" fill="url(#paint7_linear_6948_37315)"/>
<path d="M107.432 295.549C109.562 297.678 183.392 334.002 187.06 333.529C187.533 333.529 190.846 326.903 195.461 317.792V317.556C195.697 317.201 195.816 316.727 196.052 316.373C196.171 316.018 196.407 315.781 196.526 315.544C196.762 315.071 196.999 314.716 197.236 314.243C199.247 310.457 202.56 304.304 206.109 297.56L159.256 273.896L151.683 287.266C151.683 287.266 139.615 286.438 128.966 286.32C122.34 286.202 116.543 286.201 115.123 286.556C111.1 287.385 105.303 293.419 107.432 295.549Z" fill="white"/>
<path d="M106.96 295.667C109.09 297.797 183.157 334.002 186.943 333.529C188.363 333.411 194.988 322.525 200.194 309.392L152.394 286.084C152.394 286.084 118.792 285.374 114.769 286.202C110.746 287.148 104.712 293.538 106.96 295.667Z" fill="url(#paint8_linear_6948_37315)"/>
<path d="M109.445 293.183C121.987 298.98 172.154 323.354 184.104 329.979C184.222 329.979 184.222 330.098 184.104 330.098C171.562 324.655 121.632 299.808 109.327 293.419C109.09 293.301 109.209 293.064 109.445 293.183Z" fill="#29246A"/>
<path d="M120.804 285.966C123.762 287.267 126.01 290.107 126.72 292.591C127.429 295.076 127.548 298.034 126.246 300.519C126.246 300.637 126.128 300.519 126.128 300.4C127.784 295.194 125.418 288.805 120.685 285.966C120.567 286.084 120.685 285.966 120.804 285.966Z" fill="#29246A"/>
<path d="M147.78 285.492C152.749 287.859 157.718 292.473 158.783 298.034C158.783 298.271 158.547 298.271 158.428 298.152C155.115 293.656 151.684 289.87 147.425 286.084C147.188 285.729 147.425 285.256 147.78 285.492Z" fill="#29246A"/>
<path d="M143.284 285.137C148.253 287.504 153.222 292.118 154.287 297.679C154.287 297.915 154.05 297.915 153.932 297.797C150.619 293.301 147.188 289.515 142.929 285.729C142.574 285.374 142.929 284.901 143.284 285.137Z" fill="#29246A"/>
<path d="M138.669 284.664C143.639 287.031 148.608 291.645 149.673 297.206C149.673 297.442 149.436 297.442 149.318 297.324C146.005 292.828 142.574 289.042 138.314 285.256C137.959 285.019 138.314 284.546 138.669 284.664Z" fill="#29246A"/>
<path d="M134.173 284.309C139.143 286.675 144.112 291.29 145.177 296.851C145.177 297.087 144.94 297.087 144.822 296.969C141.509 292.473 138.078 288.687 133.818 284.901C133.463 284.664 133.818 284.191 134.173 284.309Z" fill="#29246A"/>
<path d="M186.706 316.728C192.267 319.45 188.008 328.087 182.447 325.366C176.886 322.644 181.145 313.889 186.706 316.728Z" fill="#29246A"/>
<path d="M148.963 269.637C152.513 268.809 154.642 272.359 155.116 275.317C155.944 280.049 155.234 285.847 153.459 290.225C153.459 290.343 153.341 290.343 153.223 290.343C152.986 290.698 152.394 290.698 152.158 290.343C149.791 286.202 146.833 281.942 145.769 277.21C145.177 274.252 145.532 270.347 148.963 269.637ZM149.91 283.126C150.975 285.255 152.158 287.267 153.223 289.396C153.577 286.438 153.932 283.599 154.051 280.641C154.051 279.221 154.051 277.801 153.814 276.381C153.577 274.252 150.738 267.626 147.543 272.832C145.769 275.672 148.608 280.641 149.91 283.126Z" fill="#29246A"/>
<path d="M164.936 298.034C160.322 296.614 156.417 293.183 152.513 290.461C152.158 290.225 152.276 289.633 152.631 289.396C152.631 289.278 152.631 289.16 152.749 289.16C157.364 287.74 163.161 287.622 167.776 288.923C170.615 289.751 174.047 292.236 172.745 295.667C171.562 298.862 167.657 298.862 164.936 298.034ZM169.314 296.614C174.757 294.011 168.486 290.58 166.356 289.988C164.936 289.633 163.516 289.515 162.097 289.396C159.139 289.16 156.299 289.278 153.341 289.396C155.352 290.58 157.246 291.999 159.257 293.301C161.623 294.957 166.238 298.152 169.314 296.614Z" fill="#29246A"/>
<path d="M151.801 279.576L207.292 307.262C207.292 307.262 250.597 219.352 255.329 213.673C261.6 206.101 344.068 216.749 363.472 192.376C383.586 167.174 366.311 135.82 366.311 135.82H303.603C303.603 135.82 303.366 142.801 307.034 152.976C307.034 152.976 235.334 148.716 214.983 168.476C199.483 183.502 151.801 279.576 151.801 279.576Z" fill="#29246A"/>
<path d="M318.511 159.247C315.316 156.999 312.003 154.988 308.572 153.094C306.797 152.148 303.248 150.61 301 150.018C299.225 149.545 298.397 149.427 300.053 150.255C301 150.728 302.893 151.556 304.667 152.503C304.312 152.503 303.957 152.503 303.721 152.503C302.538 152.385 301.236 152.385 300.053 152.385C297.687 152.266 295.202 152.385 292.836 152.266C287.985 152.266 283.134 152.74 278.164 152.976C278.046 152.976 278.046 153.213 278.164 153.213C283.015 153.094 287.985 153.331 292.836 153.331C295.202 153.331 297.687 153.331 300.053 153.449C301.236 153.449 302.419 153.449 303.603 153.568C304.549 153.568 305.614 153.686 306.56 153.568C307.034 153.804 307.507 154.041 307.862 154.159C311.412 155.816 314.961 157.591 318.392 159.484C318.511 159.484 318.629 159.247 318.511 159.247Z" fill="#455A64"/>
<path d="M302.183 133.453C302.775 136.411 303.366 139.369 304.076 142.327C304.431 143.629 304.786 145.049 305.26 146.35C305.614 147.415 306.206 148.716 307.508 149.071C308.927 149.426 309.401 148.125 309.282 146.942C309.164 145.64 308.927 144.22 308.691 142.919C308.454 141.381 308.217 139.843 307.981 138.304C307.862 137.476 307.744 136.766 307.626 135.938C307.626 135.701 307.508 134.282 307.389 133.808C307.389 133.808 307.389 133.927 307.271 133.927C307.271 133.927 307.153 133.927 307.153 133.808C307.153 133.69 307.153 133.69 307.271 133.572H307.389C307.626 133.69 307.626 134.163 307.744 134.4C307.981 135.11 308.217 135.938 308.336 136.648C308.691 138.068 309.046 139.488 309.401 140.907C309.756 142.327 309.992 143.747 310.347 145.167C310.584 146.232 310.82 147.415 310.465 148.48C310.111 149.663 309.164 150.255 308.099 150.255C308.099 150.373 308.217 150.491 308.217 150.491C308.336 150.728 308.454 151.083 308.572 151.438C308.691 151.793 308.809 152.029 308.809 152.384C308.809 152.503 308.809 152.739 308.927 152.858C308.927 152.976 308.927 153.212 308.927 153.331C308.927 153.567 308.572 153.686 308.454 153.449C308.336 153.331 308.217 153.212 308.217 152.976C308.099 152.858 308.099 152.621 307.981 152.503C307.862 152.148 307.862 151.911 307.744 151.556C307.626 151.201 307.626 150.964 307.508 150.609C307.508 150.373 307.508 150.255 307.508 150.018C306.916 149.9 306.324 149.663 305.851 149.308C305.023 148.598 304.55 147.533 304.195 146.587C303.84 145.404 303.485 144.102 303.248 142.801C302.538 139.724 301.828 136.53 301.71 133.335C301.592 133.217 302.065 133.098 302.183 133.453Z" fill="#455A64"/>
<path d="M332.355 141.854C332.591 143.274 332.71 144.812 332.946 146.232C333.183 147.652 333.538 149.072 334.011 150.491C334.366 151.793 334.958 153.213 335.668 154.278C336.377 155.461 337.442 156.407 338.389 157.235C340.4 158.892 342.648 160.312 345.133 161.258C346.316 161.732 347.618 162.205 348.919 162.56C349.629 162.678 350.221 162.915 350.931 163.033C351.522 163.151 352.114 163.151 352.587 163.506C352.824 163.625 352.705 163.98 352.587 164.098C351.64 164.453 350.457 164.216 349.511 164.098C348.446 163.98 347.381 163.743 346.316 163.388C344.186 162.796 342.175 161.732 340.282 160.548C338.389 159.365 336.614 157.945 335.313 156.171C333.893 154.396 333.183 152.266 332.71 150.018C332.236 147.415 331.881 144.457 332.118 141.736C332.118 141.736 332.355 141.736 332.355 141.854Z" fill="#455A64"/>
<path d="M163.042 269.519C164.58 269.992 166 270.702 167.538 271.412C169.076 272.122 170.614 272.832 172.153 273.542C175.111 274.962 178.187 276.5 181.145 278.038C187.061 281.114 192.976 284.309 198.892 287.503C201.969 289.16 208.476 292.828 208.831 293.183C208.949 293.301 208.713 293.656 208.594 293.537C202.442 290.816 196.526 287.858 190.492 284.9C184.576 281.942 178.542 278.984 172.744 275.672C171.088 274.725 169.55 273.778 167.893 272.95C166.237 272.004 164.462 271.175 162.924 269.874C162.805 269.874 162.924 269.401 163.042 269.519Z" fill="#455A64"/>
<path d="M366.311 150.373C366.311 150.136 365.838 150.136 365.838 150.373C365.956 163.979 363.827 179.242 353.415 188.944C341.938 199.711 325.373 200.894 310.465 200.776C301.947 200.658 293.309 200.539 284.79 200.776C276.153 201.013 267.516 201.486 258.997 202.551C255.566 203.024 252.608 204.207 250.242 206.692C247.875 209.177 246.219 212.135 244.444 215.093C240.185 222.192 235.925 229.409 231.902 236.745C223.857 251.298 216.403 266.087 209.659 281.232C208.831 283.125 208.002 285.018 207.174 286.911C207.174 287.03 207.292 287.148 207.411 287.03C214.391 271.885 221.846 256.977 229.773 242.306C233.796 234.97 237.818 227.753 242.078 220.535C244.089 217.222 245.982 213.673 248.23 210.478C250.242 207.639 252.608 204.917 256.039 203.971C258.051 203.379 260.299 203.261 262.428 203.024C264.558 202.788 266.806 202.669 269.054 202.433C273.314 202.078 277.573 201.841 281.833 201.723C290.47 201.368 299.107 201.486 307.744 201.723C322.77 201.959 339.098 201.486 351.522 191.902C356.846 187.761 360.75 182.082 363.117 175.811C365.483 169.304 366.311 162.441 366.43 155.579C366.311 153.804 366.311 152.148 366.311 150.373Z" fill="#455A64"/>
<path d="M276.508 210.005C273.432 210.005 270.356 210.241 267.28 210.241C264.677 210.36 262.192 210.36 259.707 210.951C257.341 211.543 255.566 211.779 253.673 214.382C251.307 217.577 238.41 242.542 232.967 253.546C231.429 256.622 230.01 259.698 228.59 262.774C227.052 265.969 225.75 269.163 224.212 272.358C224.212 272.476 224.33 272.595 224.33 272.476C225.632 269.873 227.17 267.27 228.471 264.549C229.891 261.946 231.193 259.225 232.494 256.622C235.215 251.297 237.818 245.855 240.54 240.531C243.261 235.206 246.456 230 249.177 224.794C251.425 220.298 254.62 214.264 256.749 213.318C259.352 212.253 263.493 211.188 266.215 211.069C269.528 210.833 272.959 210.596 276.272 210.36C276.627 210.241 276.627 210.005 276.508 210.005Z" fill="#455A64"/>
<path d="M280.887 75.4781C280.887 75.7147 281.123 76.0697 281.36 76.0697C282.07 76.0697 282.898 76.0697 283.844 76.0697C285.619 70.2721 287.749 65.6577 287.157 67.4325C286.447 70.0355 285.974 73.7033 286.211 76.0697C287.276 76.0697 289.76 76.0697 291.062 75.9514C292.245 65.8944 294.256 58.322 294.256 60.6884C294.256 69.9172 294.966 72.7568 295.795 75.9514C307.39 75.7147 322.534 75.3598 333.42 74.7682C334.366 69.2073 335.076 63.1731 335.313 63.528C336.969 66.486 337.679 70.982 337.916 74.5316C341.347 74.2949 344.187 74.0583 345.843 73.94C345.843 73.94 346.316 69.3256 346.435 67.7874C346.553 63.8829 345.843 59.9785 344.423 56.3106C343.003 52.5245 340.755 49.2116 338.626 45.8987C338.626 45.8987 338.626 45.8987 338.626 45.7804C337.206 43.414 336.023 41.166 335.194 38.7996C334.603 37.1432 334.248 35.3684 333.893 33.357C332.946 26.6129 328.687 20.9336 322.298 19.6322C309.519 9.10188 297.806 14.6628 294.73 23.5366C294.375 24.3649 294.138 25.4297 293.901 26.4946C292.955 30.5174 292.127 35.605 291.417 39.6278C291.062 41.5209 290.707 43.1774 290.234 44.2422C287.631 51.4596 280.887 55.9557 280.887 75.4781Z" fill="#29246A"/>
<path d="M325.137 21.1707C329.515 23.0638 332.236 26.14 333.183 30.9911C333.774 33.8307 334.129 36.6703 335.431 39.2733C336.732 41.9946 338.744 44.2426 340.755 46.3724C343.95 49.8036 346.198 53.3531 347.026 58.2041C347.854 63.0551 347.973 68.971 346.553 73.7037C347.618 68.971 347.263 62.4636 346.079 57.6125C344.778 52.2882 341.583 49.0937 338.152 45.1892C335.431 42.1129 333.656 38.5634 332.828 34.5406C332.355 32.0559 332.236 29.5712 331.053 27.3232C329.752 24.6019 327.267 23.0638 324.782 21.644C324.546 21.4073 324.901 20.9341 325.137 21.1707Z" fill="#29246A"/>
<path d="M283.608 52.1699C286.329 48.1471 289.169 44.7159 290.588 39.7465C291.89 35.2504 292.482 30.6361 293.783 26.14C293.783 26.0217 293.901 26.14 293.901 26.14C291.89 34.0673 292.008 41.8762 287.394 48.6203C284.909 52.2882 282.425 55.7194 280.886 60.0972C279.348 64.7115 278.757 69.3259 278.993 74.177C278.993 74.2953 278.757 74.2953 278.757 74.177C277.574 66.6046 279.348 58.559 283.608 52.1699Z" fill="#29246A"/>
<path d="M316.736 80.0925C312.95 102.809 297.687 131.679 294.019 133.454C287.511 136.53 244.326 139.961 242.669 139.725C238.41 139.37 233.204 110.973 236.635 108.134C237.463 107.424 278.519 107.187 280.294 106.596C282.424 106.004 292.599 91.3327 303.011 76.4246C310.465 66.0127 318.747 67.9058 316.736 80.0925Z" fill="url(#paint9_linear_6948_37315)"/>
<path d="M247.875 138.305C247.402 138.541 239.948 141.618 235.452 142.564C232.02 143.392 222.318 145.285 221.017 141.618C220.189 139.133 225.868 137.358 229.772 135.938C231.902 135.228 234.505 133.217 233.914 131.916C232.967 129.549 227.643 131.561 224.093 133.335C217.231 136.767 208.002 143.274 204.097 139.606C202.678 138.186 204.571 136.057 207.292 133.927C202.914 136.293 198.3 138.305 196.525 136.767C195.579 135.938 195.579 134.874 196.17 133.69C194.869 134.045 193.686 133.927 192.976 132.98C191.674 131.442 192.502 129.431 194.159 127.301C193.686 127.183 193.212 126.946 192.976 126.355C190.373 121.74 205.636 109.79 210.723 108.962C225.75 106.359 241.486 108.489 241.486 108.489C247.047 113.576 247.875 138.186 247.875 138.305Z" fill="url(#paint10_linear_6948_37315)"/>
<path d="M226.933 123.16C223.383 123.515 219.834 124.58 216.757 126.354C213.208 128.484 210.25 131.679 206.819 134.163C206.7 134.282 206.819 134.4 206.937 134.282C208.475 132.98 210.25 131.797 211.906 130.614C213.563 129.431 215.101 128.129 216.757 127.064C219.834 125.053 223.265 123.633 226.933 123.16Z" fill="#29246A"/>
<path d="M224.448 116.652C220.544 117.481 216.403 118.309 212.735 119.965C208.712 121.74 205.399 124.816 202.086 127.893C200.193 129.667 198.182 131.56 196.407 133.453C196.289 133.572 196.407 133.69 196.525 133.572C199.838 130.496 203.151 127.538 206.701 124.58C210.014 121.858 213.563 119.847 217.586 118.545C219.834 117.836 222.2 117.244 224.448 116.652C224.567 116.771 224.567 116.652 224.448 116.652Z" fill="#29246A"/>
<path d="M220.662 110.973C216.876 111.565 213.445 112.038 210.014 113.813C205.399 116.297 200.903 120.557 199.247 122.095C197.472 123.751 195.815 125.526 194.041 127.301C193.922 127.419 194.041 127.538 194.159 127.419C197.945 123.633 202.086 119.965 206.346 116.652C208.357 115.114 210.605 113.694 213.09 112.866C215.574 111.801 218.059 111.446 220.662 110.973Z" fill="#29246A"/>
<path d="M246.81 119.61V140.907C246.81 140.907 282.779 139.488 294.256 134.518C300.408 131.797 316.263 92.0422 318.392 79.2639C320.522 66.7222 315.553 59.2682 302.774 73.8213C292.954 84.9431 278.519 105.057 277.336 105.649C276.153 106.24 246.81 103.992 246.81 103.992V119.61Z" fill="url(#paint11_linear_6948_37315)"/>
<path d="M315.671 87.9015C315.671 88.2564 315.789 88.4931 315.907 88.7297C316.144 88.0198 316.381 87.3099 316.499 86.6C316.026 86.8366 315.671 87.3099 315.671 87.9015ZM298.515 86.4816C299.225 86.4816 299.935 87.0732 299.935 87.9015C299.935 88.6114 299.343 89.3213 298.515 89.3213C297.805 89.3213 297.095 88.7297 297.095 87.9015C297.095 87.1916 297.687 86.4816 298.515 86.4816ZM307.744 72.4019C308.453 72.4019 309.163 72.9934 309.163 73.8217C309.163 74.5316 308.572 75.2415 307.744 75.2415C306.915 75.2415 306.324 74.6499 306.324 73.8217C306.324 72.9934 307.034 72.4019 307.744 72.4019ZM298.515 114.05C299.225 114.05 299.935 114.641 299.935 115.469C299.935 116.179 299.343 116.889 298.515 116.889C297.805 116.889 297.095 116.298 297.095 115.469C297.095 114.641 297.687 114.05 298.515 114.05ZM279.939 114.05C280.649 114.05 281.359 114.641 281.359 115.469C281.359 116.179 280.767 116.889 279.939 116.889C279.229 116.889 278.519 116.298 278.519 115.469C278.637 114.641 279.229 114.05 279.939 114.05ZM261.481 114.05C262.191 114.05 262.901 114.641 262.901 115.469C262.901 116.179 262.31 116.889 261.481 116.889C260.771 116.889 260.062 116.298 260.062 115.469C260.062 114.641 260.653 114.05 261.481 114.05ZM307.744 99.8515C308.453 99.8515 309.163 100.443 309.163 101.271C309.163 101.981 308.572 102.691 307.744 102.691C306.915 102.691 306.324 102.1 306.324 101.271C306.324 100.443 307.034 99.8515 307.744 99.8515ZM289.286 99.8515C289.996 99.8515 290.706 100.443 290.706 101.271C290.706 101.981 290.114 102.691 289.286 102.691C288.458 102.691 287.866 102.1 287.866 101.271C287.866 100.443 288.458 99.8515 289.286 99.8515ZM289.286 127.42C289.996 127.42 290.706 128.011 290.706 128.839C290.706 129.549 290.114 130.259 289.286 130.259C288.458 130.259 287.866 129.668 287.866 128.839C287.866 128.011 288.458 127.42 289.286 127.42ZM270.71 127.42C271.42 127.42 272.13 128.011 272.13 128.839C272.13 129.549 271.538 130.259 270.71 130.259C269.882 130.259 269.29 129.668 269.29 128.839C269.29 128.011 270 127.42 270.71 127.42ZM252.134 127.42C252.844 127.42 253.554 128.011 253.554 128.839C253.554 129.549 252.962 130.259 252.134 130.259C251.424 130.259 250.714 129.668 250.714 128.839C250.833 128.011 251.424 127.42 252.134 127.42Z" fill="white"/>
<path d="M254.501 121.74C254.501 119.137 254.383 116.534 254.383 113.931C254.264 111.328 254.383 108.725 254.146 106.122C254.146 106.004 253.909 106.004 253.909 106.122C253.673 108.607 253.791 111.21 253.673 113.694C253.673 116.297 253.554 119.019 253.554 121.622C253.554 126.828 253.673 132.152 254.028 137.358C254.028 137.476 254.264 137.476 254.264 137.358C254.383 132.152 254.501 126.946 254.501 121.74Z" fill="#29246A"/>
<path opacity="0.1" d="M266.569 139.488C276.863 138.542 288.576 136.885 294.256 134.401C300.408 131.679 316.263 91.9247 318.393 79.1463C319.576 72.1656 318.511 66.723 315.08 65.8948L266.569 139.488Z" fill="black"/>
<path d="M298.752 123.278L297.569 145.286H373.174C373.174 145.286 351.64 83.0504 337.087 69.9172C327.267 61.0434 316.855 62.6998 310.702 70.1538C309.164 72.0469 293.309 94.054 292.126 104.466C291.18 113.576 298.752 123.278 298.752 123.278Z" fill="url(#paint12_linear_6948_37315)"/>
<path d="M298.161 135.347C298.516 131.324 298.871 127.301 299.226 123.278V123.16L299.107 123.042C297.096 120.32 295.321 117.244 294.138 114.05C293.546 112.511 293.073 110.855 292.836 109.08C292.6 107.424 292.481 105.767 292.836 103.993C293.073 102.336 293.546 100.68 294.02 99.0232C294.493 97.3667 295.203 95.8286 295.913 94.1721C297.332 90.9776 298.871 87.9013 300.764 84.9434C298.752 87.783 296.978 90.7409 295.439 93.8172C293.901 96.8934 292.6 100.206 292.008 103.756C291.417 107.305 292.126 110.855 293.31 114.168C294.611 117.481 296.268 120.557 298.516 123.278L298.397 123.042C298.279 127.301 298.161 131.324 298.161 135.347Z" fill="#29246A"/>
<path d="M297.096 88.2561C296.386 89.5576 295.794 90.8591 295.321 92.2789C295.084 92.9888 294.848 93.6987 294.729 94.4086C294.611 95.1185 294.493 95.8284 294.611 96.5383C295.084 95.1185 295.558 93.817 295.913 92.3972C296.386 91.0957 296.741 89.7942 297.096 88.2561Z" fill="#29246A"/>
<path d="M334.129 87.9015C334.129 88.6114 334.721 89.3213 335.549 89.3213C336.259 89.3213 336.969 88.7297 336.969 87.9015C336.969 87.1916 336.377 86.4817 335.549 86.4817C334.839 86.4817 334.129 87.1916 334.129 87.9015ZM316.973 86.4817C317.683 86.4817 318.393 87.0732 318.393 87.9015C318.393 88.6114 317.801 89.3213 316.973 89.3213C316.263 89.3213 315.553 88.7297 315.553 87.9015C315.672 87.1916 316.263 86.4817 316.973 86.4817ZM299.581 87.0732C299.817 87.3099 299.817 87.5465 299.817 87.9015C299.817 88.6114 299.226 89.3213 298.397 89.3213H298.279C298.752 88.4931 299.107 87.7831 299.581 87.0732ZM326.32 72.4019C327.03 72.4019 327.74 72.9934 327.74 73.8217C327.74 74.5316 327.149 75.2415 326.32 75.2415C325.492 75.2415 324.901 74.6499 324.901 73.8217C324.901 72.9934 325.492 72.4019 326.32 72.4019ZM308.809 72.8751C309.046 73.1118 309.164 73.4667 309.164 73.8217C309.164 74.5316 308.573 75.2415 307.744 75.2415C307.508 75.2415 307.39 75.2415 307.271 75.1232C307.744 74.1766 308.336 73.4667 308.809 72.8751ZM354.125 114.05C354.835 114.05 355.545 114.641 355.545 115.469C355.545 116.179 354.953 116.889 354.125 116.889C353.415 116.889 352.705 116.298 352.705 115.469C352.705 114.641 353.297 114.05 354.125 114.05ZM335.549 114.05C336.259 114.05 336.969 114.641 336.969 115.469C336.969 116.179 336.377 116.889 335.549 116.889C334.839 116.889 334.129 116.298 334.129 115.469C334.129 114.641 334.839 114.05 335.549 114.05ZM316.973 114.05C317.683 114.05 318.393 114.641 318.393 115.469C318.393 116.179 317.801 116.889 316.973 116.889C316.263 116.889 315.553 116.298 315.553 115.469C315.672 114.641 316.263 114.05 316.973 114.05ZM298.516 114.05C299.226 114.05 299.936 114.641 299.936 115.469C299.936 116.179 299.344 116.889 298.516 116.889C297.806 116.889 297.096 116.298 297.096 115.469C297.096 114.641 297.687 114.05 298.516 114.05ZM344.778 99.8515C345.488 99.8515 346.198 100.443 346.198 101.271C346.198 101.981 345.606 102.691 344.778 102.691C344.068 102.691 343.358 102.1 343.358 101.271C343.476 100.443 344.068 99.8515 344.778 99.8515ZM326.32 99.8515C327.03 99.8515 327.74 100.443 327.74 101.271C327.74 101.981 327.149 102.691 326.32 102.691C325.492 102.691 324.901 102.1 324.901 101.271C324.901 100.443 325.492 99.8515 326.32 99.8515ZM307.744 99.8515C308.454 99.8515 309.164 100.443 309.164 101.271C309.164 101.981 308.573 102.691 307.744 102.691C306.916 102.691 306.325 102.1 306.325 101.271C306.325 100.443 307.035 99.8515 307.744 99.8515ZM371.991 141.736C372.346 142.801 372.701 143.747 372.938 144.339C372.819 144.339 372.701 144.339 372.701 144.339C371.991 144.339 371.281 143.747 371.281 142.919C371.281 142.328 371.518 141.854 371.991 141.736ZM354.125 141.499C354.835 141.499 355.545 142.091 355.545 142.919C355.545 143.629 354.953 144.339 354.125 144.339C353.415 144.339 352.705 143.747 352.705 142.919C352.705 142.091 353.297 141.499 354.125 141.499ZM335.549 141.499C336.259 141.499 336.969 142.091 336.969 142.919C336.969 143.629 336.377 144.339 335.549 144.339C334.839 144.339 334.129 143.747 334.129 142.919C334.129 142.091 334.839 141.499 335.549 141.499ZM316.973 141.499C317.683 141.499 318.393 142.091 318.393 142.919C318.393 143.629 317.801 144.339 316.973 144.339C316.263 144.339 315.553 143.747 315.553 142.919C315.672 142.091 316.263 141.499 316.973 141.499ZM297.806 141.736C298.042 141.618 298.279 141.499 298.516 141.499C299.226 141.499 299.936 142.091 299.936 142.919C299.936 143.629 299.344 144.339 298.516 144.339C298.161 144.339 297.924 144.221 297.687 144.102L297.806 141.736ZM363.354 127.42C364.064 127.42 364.774 128.011 364.774 128.839C364.774 129.549 364.182 130.259 363.354 130.259C362.644 130.259 361.934 129.668 361.934 128.839C361.934 128.011 362.526 127.42 363.354 127.42ZM344.778 127.42C345.488 127.42 346.198 128.011 346.198 128.839C346.198 129.549 345.606 130.259 344.778 130.259C344.068 130.259 343.358 129.668 343.358 128.839C343.476 128.011 344.068 127.42 344.778 127.42ZM326.32 127.42C327.03 127.42 327.74 128.011 327.74 128.839C327.74 129.549 327.149 130.259 326.32 130.259C325.492 130.259 324.901 129.668 324.901 128.839C324.901 128.011 325.492 127.42 326.32 127.42ZM307.744 127.42C308.454 127.42 309.164 128.011 309.164 128.839C309.164 129.549 308.573 130.259 307.744 130.259C306.916 130.259 306.325 129.668 306.325 128.839C306.325 128.011 307.035 127.42 307.744 127.42Z" fill="white"/>
<path d="M310.583 118.664C314.133 119.019 317.683 119.492 321.114 120.439C322.888 120.912 324.545 121.385 326.201 121.977C327.03 122.213 327.858 122.45 328.686 122.805C329.514 123.042 330.461 123.278 331.407 123.278C331.526 123.278 331.526 123.397 331.407 123.397C330.461 123.397 329.633 123.397 328.804 123.397C327.976 123.278 327.148 123.16 326.32 122.923C324.545 122.45 322.888 121.977 321.114 121.503C317.564 120.557 314.015 119.729 310.465 119.019C310.347 118.9 310.347 118.664 310.583 118.664Z" fill="#29246A"/>
<path d="M301.71 121.858C304.668 121.503 307.626 121.385 310.583 121.385C312.003 121.385 313.541 121.503 314.961 121.622C315.671 121.74 316.381 121.74 317.091 121.858C317.919 121.977 318.629 122.213 319.339 122.213C319.457 122.213 319.457 122.332 319.339 122.332C318.629 122.213 317.919 122.332 317.091 122.332C316.381 122.332 315.671 122.332 314.843 122.332C313.423 122.332 311.885 122.332 310.465 122.213C307.507 122.095 304.549 122.095 301.591 122.095C301.591 122.095 301.591 121.858 301.71 121.858Z" fill="#29246A"/>
<path d="M334.72 66.6042C362.17 78.3177 394.589 106.714 393.406 117.008C392.105 128.366 352.823 111.802 353.06 110.145C353.296 108.725 344.541 97.1302 331.881 80.5657C319.103 63.528 327.976 63.6463 334.72 66.6042Z" fill="url(#paint13_linear_6948_37315)"/>
<path d="M352.705 87.9017C352.705 88.6116 353.297 89.3216 354.125 89.3216C354.835 89.3216 355.545 88.73 355.545 87.9017C355.545 87.1918 354.953 86.4819 354.125 86.4819C353.297 86.4819 352.705 87.1918 352.705 87.9017Z" fill="white"/>
<path d="M343.477 73.7037C343.477 74.4136 344.068 75.1236 344.897 75.1236C345.607 75.1236 346.316 74.532 346.316 73.7037C346.316 72.9938 345.725 72.2839 344.897 72.2839C344.068 72.4023 343.477 72.9938 343.477 73.7037Z" fill="white"/>
<path d="M326.794 72.4026C327.03 72.8759 327.267 73.4674 327.622 74.059C327.622 73.9407 327.622 73.8224 327.622 73.7041C327.622 73.1125 327.267 72.6392 326.794 72.4026Z" fill="white"/>
<path d="M389.738 115.351C389.738 116.061 390.33 116.771 391.158 116.771C391.987 116.771 392.578 116.18 392.578 115.351C392.578 114.642 391.987 113.932 391.158 113.932C390.33 113.932 389.738 114.642 389.738 115.351Z" fill="white"/>
<path d="M371.162 115.351C371.162 116.061 371.754 116.771 372.582 116.771C373.292 116.771 374.002 116.18 374.002 115.351C374.002 114.642 373.41 113.932 372.582 113.932C371.872 114.05 371.162 114.642 371.162 115.351Z" fill="white"/>
<path d="M380.51 101.272C380.51 101.982 381.102 102.691 381.93 102.691C382.64 102.691 383.35 102.1 383.35 101.272C383.35 100.562 382.758 99.8518 381.93 99.8518C381.102 99.8518 380.51 100.443 380.51 101.272Z" fill="white"/>
<path d="M361.934 101.272C361.934 101.982 362.525 102.691 363.354 102.691C364.064 102.691 364.773 102.1 364.773 101.272C364.773 100.562 364.182 99.8518 363.354 99.8518C362.525 99.8518 361.934 100.443 361.934 101.272Z" fill="white"/>
<path d="M393.406 117.007C391.631 125.053 380.155 131.087 352.942 148.953C349.155 151.438 324.545 129.549 328.45 126.709C333.301 123.16 353.178 110.263 354.716 109.435C367.968 103.046 394.589 111.565 393.406 117.007Z" fill="url(#paint14_linear_6948_37315)"/>
<path d="M333.774 122.804C333.774 122.804 321.942 129.785 316.973 135.464C310.229 142.918 307.508 152.266 306.561 156.17C304.668 164.452 305.733 185.631 311.885 186.459C317.446 187.169 315.316 165.517 315.316 165.517C315.316 165.517 313.897 187.997 320.759 187.524C327.622 187.169 323.717 162.086 323.717 162.086C323.717 162.086 322.771 185.158 329.87 183.62C335.194 182.437 332.827 159.601 332.827 159.601C332.827 159.601 332.118 179.479 337.679 178.532C343.831 177.467 343.003 156.288 343.003 156.288C356.609 151.437 361.105 143.628 363.708 137.594C364.182 136.174 333.774 122.804 333.774 122.804Z" fill="url(#paint15_linear_6948_37315)"/>
<path d="M315.316 157.59C315.08 160.193 314.725 162.914 314.725 165.517C314.725 168.12 314.725 170.842 314.961 173.445C315.553 179.952 316.854 183.857 316.854 183.62C315.553 177.586 315.435 168.12 315.435 165.517C315.435 162.914 315.316 160.311 315.316 157.59C315.435 157.59 315.316 157.59 315.316 157.59Z" fill="#29246A"/>
<path d="M324.9 157.59C324.664 161.021 324.427 164.334 324.309 167.647C324.309 170.96 324.545 174.273 324.782 177.586C324.782 177.822 324.9 177.704 324.9 177.467C324.782 174.154 325.019 170.96 325.019 167.647C325.019 164.334 324.782 160.903 324.9 157.59C324.9 157.472 324.9 157.472 324.9 157.59Z" fill="#29246A"/>
<path d="M333.064 156.052C332.472 161.14 332.946 166.464 333.419 171.551C333.419 171.788 333.656 171.67 333.537 171.433C333.301 166.227 333.064 162.204 333.182 156.052C333.182 155.934 333.064 155.934 333.064 156.052Z" fill="#29246A"/>
<path d="M327.74 123.87C327.74 123.87 361.934 146.587 362.289 146.468C362.644 146.35 393.406 125.408 393.406 117.007C393.406 108.488 366.43 103.992 354.716 109.435C343.003 114.759 327.74 123.87 327.74 123.87Z" fill="url(#paint16_linear_6948_37315)"/>
<path d="M338.625 119.61C339.926 120.32 350.812 127.892 353.06 129.667C355.426 131.324 364.891 138.304 367.139 140.197C367.258 140.316 367.139 140.434 367.021 140.316C364.418 138.778 354.834 131.915 352.468 130.259C350.102 128.602 339.571 120.793 338.507 119.847C338.388 119.61 338.507 119.61 338.625 119.61Z" fill="#29246A"/>
<path d="M389.738 115.35C389.738 116.06 390.33 116.77 391.158 116.77C391.987 116.77 392.578 116.178 392.578 115.35C392.578 114.64 391.987 113.93 391.158 113.93C390.33 113.93 389.738 114.64 389.738 115.35ZM372.582 114.049C373.292 114.049 374.002 114.64 374.002 115.469C374.002 116.178 373.411 116.888 372.582 116.888C371.873 116.888 371.163 116.297 371.163 115.469C371.163 114.64 371.873 114.049 372.582 114.049ZM354.125 114.049C354.835 114.049 355.545 114.64 355.545 115.469C355.545 116.178 354.953 116.888 354.125 116.888C353.415 116.888 352.705 116.297 352.705 115.469C352.705 114.64 353.297 114.049 354.125 114.049ZM381.811 127.419C382.521 127.419 383.231 128.01 383.231 128.838C383.231 129.548 382.639 130.258 381.811 130.258C381.101 130.258 380.391 129.667 380.391 128.838C380.51 128.01 381.101 127.419 381.811 127.419ZM363.354 127.419C364.064 127.419 364.773 128.01 364.773 128.838C364.773 129.548 364.182 130.258 363.354 130.258C362.644 130.258 361.934 129.667 361.934 128.838C361.934 128.01 362.525 127.419 363.354 127.419ZM344.778 127.419C345.488 127.419 346.198 128.01 346.198 128.838C346.198 129.548 345.606 130.258 344.778 130.258C344.068 130.258 343.358 129.667 343.358 128.838C343.476 128.01 344.068 127.419 344.778 127.419Z" fill="white"/>
<path d="M369.151 107.187C366.312 106.95 358.621 106.832 352.587 110.381C352.469 110.381 352.587 110.499 352.587 110.499C357.793 108.133 366.312 107.187 369.151 107.187Z" fill="#29246A"/>
<path d="M329.87 125.289L327.858 123.869V123.988C329.87 122.686 331.999 121.503 334.129 120.32C336.259 119.137 338.27 117.954 340.4 116.77C344.659 114.404 348.8 112.156 353.178 110.145L353.651 109.908L353.415 109.553C350.693 105.175 347.735 100.916 344.778 96.7747C341.701 92.6336 338.625 88.4925 335.194 84.7063C338.388 88.7291 341.346 92.9885 344.304 97.248C347.144 101.507 350.102 105.767 352.823 110.145V109.316C348.445 111.446 344.186 113.694 340.045 116.179C337.915 117.362 335.904 118.663 333.892 119.965C331.881 121.266 329.87 122.568 327.858 123.869L327.74 123.988L327.858 124.106L329.87 125.289Z" fill="#29246A"/>
<path d="M342.175 93.6985C341.702 93.2252 341.347 92.752 340.873 92.2787C340.4 91.8054 339.927 91.4505 339.453 90.9772C338.507 90.149 337.442 89.3207 336.377 88.6108C337.205 89.6757 338.152 90.5039 339.099 91.3321C339.572 91.8054 340.045 92.1604 340.637 92.5153C341.11 93.1069 341.583 93.4619 342.175 93.6985Z" fill="#29246A"/>
<path d="M371.399 139.96C370.098 140.67 368.796 141.499 367.613 142.327C366.43 143.155 365.247 144.102 364.182 145.166C365.484 144.457 366.785 143.628 367.968 142.8C369.151 141.972 370.335 141.025 371.399 139.96Z" fill="#29246A"/>
<path d="M325.847 67.4324C325.728 69.4438 322.297 79.0275 316.263 79.6191C313.187 79.974 311.649 69.0888 311.649 69.0888L311.412 68.2606L307.862 57.3754L321.824 46.3718C321.824 46.6085 325.847 66.9591 325.847 67.4324Z" fill="url(#paint17_linear_6948_37315)"/>
<path d="M323.362 54.1809C320.878 62.8181 314.488 66.8409 311.531 68.379L307.981 57.4938L321.942 46.4902C321.824 46.6086 322.534 50.0398 323.362 54.1809Z" fill="#29246A"/>
<path d="M290.588 41.9941C291.18 61.9898 303.248 63.8828 307.507 63.7645C311.412 63.6462 324.782 62.818 326.32 42.8223C327.858 22.8266 318.393 16.7924 309.401 16.5558C300.408 16.4375 290.115 21.9984 290.588 41.9941Z" fill="url(#paint18_linear_6948_37315)"/>
<path d="M293.546 37.1431C294.02 37.0248 294.375 36.9064 294.848 36.7881C295.321 36.6698 295.794 36.5515 296.149 36.0782C296.386 35.8416 296.268 35.3683 296.031 35.25C295.558 34.7767 294.848 34.7767 294.256 35.0133C293.546 35.25 293.073 35.4866 292.718 36.0782C292.363 36.5515 292.955 37.2614 293.546 37.1431Z" fill="#29246A"/>
<path d="M306.324 36.0781C305.851 36.0781 305.377 35.9597 304.904 35.9597C304.431 35.8414 303.957 35.8414 303.484 35.4865C303.248 35.2498 303.248 34.8949 303.366 34.6582C303.721 34.0667 304.431 34.0667 305.022 34.0667C305.732 34.185 306.206 34.3033 306.679 34.8949C307.389 35.3682 306.915 36.1964 306.324 36.0781Z" fill="#29246A"/>
<path d="M304.077 41.4024C304.077 41.2841 304.195 41.4024 304.077 41.4024C304.195 42.8223 304.55 44.4787 305.733 44.8336V44.952C304.314 44.7153 303.959 42.7039 304.077 41.4024Z" fill="#29246A"/>
<path d="M305.26 39.864C307.389 39.509 307.863 43.8868 305.851 44.2417C303.84 44.4783 303.367 40.1006 305.26 39.864Z" fill="#29246A"/>
<path d="M306.088 39.9824C306.443 40.219 306.916 40.574 307.389 40.574C307.981 40.574 308.336 40.1007 308.572 39.6274H308.691C308.809 40.4557 308.572 41.4022 307.626 41.5205C306.798 41.7571 306.206 41.0473 305.851 40.219C305.851 40.219 305.969 39.9824 306.088 39.9824Z" fill="#29246A"/>
<path d="M296.622 41.8757L296.504 41.9941C296.74 43.2956 296.74 44.952 295.557 45.5436V45.6619C296.977 45.3069 296.977 43.1772 296.622 41.8757Z" fill="#29246A"/>
<path d="M295.202 40.6928C292.954 40.8111 293.309 45.1889 295.32 45.0705C297.332 44.9522 297.095 40.5745 295.202 40.6928Z" fill="#29246A"/>
<path d="M294.374 41.0475C294.019 41.2842 293.782 41.7574 293.309 41.7574C292.836 41.8757 292.481 41.4025 292.126 40.9292H292.007C292.007 41.7574 292.362 42.5856 293.191 42.704C293.9 42.8223 294.374 41.9941 294.61 41.1658C294.61 41.1658 294.492 40.9292 294.374 41.0475Z" fill="#29246A"/>
<path d="M305.733 52.0507C305.496 52.4056 305.378 52.9972 304.905 53.2338C304.432 53.4705 303.84 53.3521 303.367 53.3521C303.367 53.3521 303.248 53.3521 303.367 53.4705C303.84 53.8254 304.668 53.9437 305.26 53.5888C305.851 53.2338 305.97 52.6422 305.851 52.0507C305.851 51.9323 305.733 51.9323 305.733 52.0507Z" fill="#29246A"/>
<path d="M299.107 47.7913C299.107 47.7913 298.989 49.8027 299.107 50.7492C299.107 50.8675 302.183 51.2225 303.958 48.7378C304.076 48.6195 303.84 48.5012 303.84 48.6195C302.657 49.6844 301.237 50.0393 299.817 50.1576C299.699 49.921 300.054 46.6081 299.935 46.6081C299.462 46.6081 298.397 47.0814 297.806 47.318C297.924 43.0586 298.634 38.7991 298.634 34.5397C298.634 34.4214 298.397 34.3031 298.397 34.5397C297.332 38.9175 297.096 43.8868 296.859 48.2645C296.859 48.8561 298.752 48.0279 299.107 47.7913Z" fill="#29246A"/>
<path d="M300.408 50.6313C300.408 50.6313 301.355 51.6961 302.538 51.9328C303.011 52.0511 303.484 52.0511 303.839 51.8144C304.786 51.4595 304.668 50.513 304.431 49.803C304.194 49.2115 303.839 48.6199 303.839 48.6199C303.839 48.6199 302.656 50.158 300.408 50.6313Z" fill="#29246A"/>
<path d="M302.538 51.9325C303.011 52.0508 303.484 52.0508 303.839 51.8141C304.786 51.4592 304.668 50.5126 304.431 49.8027C303.484 50.0394 302.538 50.8676 302.538 51.9325Z" fill="#FF9BBC"/>
<path d="M320.641 17.8572C318.866 17.5023 315.435 8.39181 320.759 2.71256C325.965 -2.84837 335.076 0.582843 333.183 8.9834C332 14.3077 324.427 18.4488 320.641 17.8572Z" fill="#29246A"/>
<path d="M329.278 0.464844C331.526 1.64802 333.064 3.65942 334.011 5.78914C334.958 7.91886 334.721 10.4035 333.301 12.2966C332 14.1897 329.87 15.4912 327.74 16.5561C326.675 17.0293 325.492 17.3843 324.309 17.6209C323.126 17.8575 321.943 18.0942 320.641 17.9759C321.824 18.4491 323.126 18.4491 324.427 18.3308C325.729 18.2125 326.912 17.9759 328.213 17.5026C330.58 16.6744 332.946 15.2545 334.484 13.1248C335.194 12.06 335.786 10.7585 335.904 9.33867C336.022 7.91886 335.667 6.61736 335.076 5.43418C333.774 2.94951 331.645 1.17475 329.278 0.464844Z" fill="#29246A"/>
<path d="M325.137 42.4673C321.469 43.4139 319.458 35.0133 319.458 35.0133C319.458 35.0133 303.367 34.4217 300.29 21.7618C300.29 21.7618 298.634 30.2806 290.943 35.1317C290.943 35.1317 289.642 20.9335 300.409 16.7924C300.409 16.7924 313.66 9.92998 322.889 19.8687C331.999 29.8073 327.622 41.7574 325.137 42.4673Z" fill="#29246A"/>
<path d="M300.053 20.8152C300.053 22.8266 300.645 24.838 301.591 26.6128C302.42 28.3875 303.721 30.044 305.259 31.4638C305.614 31.8187 306.087 32.0554 306.442 32.4103L307.034 32.8836C307.271 33.0019 307.507 33.1202 307.744 33.2385C308.217 33.4752 308.572 33.7118 309.045 33.9485C309.519 34.1851 309.992 34.3034 310.465 34.54C310.702 34.6584 310.938 34.7767 311.175 34.7767L311.885 34.895L313.305 35.2499C314.251 35.3683 315.316 35.4866 316.263 35.6049C315.316 35.3683 314.37 35.1316 313.423 34.895L312.003 34.4217L311.293 34.1851C311.057 34.0668 310.82 33.9484 310.583 33.8301C310.11 33.5935 309.755 33.4752 309.282 33.2385C308.809 33.0019 308.454 32.7653 307.98 32.5286L307.389 32.1737L306.797 31.7004C306.442 31.3455 305.969 31.1088 305.614 30.7539C304.076 29.5707 302.893 28.0326 301.946 26.2578C301.473 25.4296 301 24.483 300.645 23.6548C300.526 22.7083 300.29 21.7617 300.053 20.8152Z" fill="#29246A"/>
<path d="M308.809 48.265C311.649 47.6734 313.779 45.1888 313.897 42.1125C314.015 38.563 311.176 35.605 307.626 35.4867C304.076 35.3684 301.119 38.208 301 41.7575C300.882 45.3071 303.721 48.265 307.271 48.3833C307.744 48.3833 308.336 48.3833 308.809 48.265ZM306.206 36.4332C306.679 36.3149 307.153 36.3149 307.626 36.3149C310.702 36.4333 313.187 39.0362 313.069 42.1125C312.95 45.1888 310.347 47.6734 307.271 47.5551C304.195 47.4368 301.71 44.8338 301.828 41.7575C301.947 39.1546 303.84 37.0248 306.206 36.4332Z" fill="url(#paint19_linear_6948_37315)"/>
<path d="M294.02 49.685C296.386 49.2117 298.042 46.2537 297.687 42.8225C297.569 41.1661 296.859 39.628 295.913 38.4448C294.848 37.2616 293.546 36.67 292.245 36.9066C290.943 37.025 289.76 37.8532 289.05 39.1547C288.34 40.4562 287.985 42.1126 288.104 43.7691C288.459 47.3186 290.943 50.0399 293.546 49.685C293.783 49.685 293.901 49.685 294.02 49.685ZM292.127 37.7349C292.245 37.7349 292.363 37.7349 292.481 37.7349C293.546 37.6165 294.493 38.0898 295.321 39.0364C296.149 39.9829 296.741 41.4027 296.859 42.9408C297.214 46.0171 295.676 48.7384 293.546 48.8567C291.417 49.0934 289.405 46.727 289.05 43.6507C288.932 42.1126 289.169 40.6928 289.878 39.5096C290.47 38.5631 291.298 37.9715 292.127 37.7349Z" fill="url(#paint20_linear_6948_37315)"/>
<path d="M301.237 42.4674L301.71 41.7575C300.645 41.0476 298.279 40.2194 296.859 41.9942L297.569 42.4674C298.87 40.811 301.237 42.3491 301.237 42.4674Z" fill="url(#paint21_linear_6948_37315)"/>
<path d="M330.107 41.2842L330.816 40.811C330.58 40.456 328.568 37.4981 326.675 37.3798C324.901 37.2614 313.424 39.5095 312.95 39.6278L313.069 40.456C316.382 39.8644 325.137 38.208 326.557 38.208C327.858 38.3263 329.515 40.456 330.107 41.2842Z" fill="url(#paint22_linear_6948_37315)"/>
<path d="M322.771 41.9944C322.771 41.9944 326.438 35.2503 329.396 36.5518C332.354 37.7349 330.106 47.2004 327.03 48.7385C323.835 50.3949 322.297 47.437 322.297 47.437L322.771 41.9944Z" fill="url(#paint23_linear_6948_37315)"/>
<path d="M328.687 39.155C328.687 39.155 328.687 39.2733 328.687 39.155C326.557 40.4565 325.492 42.7046 324.9 45.0709C325.492 44.1244 326.32 43.5328 327.622 44.2427C327.74 44.2427 327.622 44.361 327.622 44.361C326.675 44.2427 325.965 44.4793 325.374 45.3075C325.019 45.8991 324.782 46.6091 324.545 47.319C324.427 47.5556 324.072 47.4373 324.072 47.2006C323.717 44.2427 325.492 39.8649 328.687 39.155Z" fill="#29246A"/>
<path d="M326.438 48.0283C326.32 48.5016 325.965 48.8565 325.491 48.7382C325.018 48.6199 324.663 48.265 324.782 47.7917C324.9 47.3184 325.255 46.9635 325.728 47.0818C326.201 47.0818 326.556 47.555 326.438 48.0283Z" fill="#455A64"/>
<path d="M326.083 48.0284C326.083 48.2651 325.846 48.3834 325.61 48.3834C325.373 48.3834 325.255 48.1468 325.255 47.9101C325.255 47.6735 325.491 47.5552 325.728 47.5552C325.965 47.5552 326.083 47.7918 326.083 48.0284Z" fill="#29246A"/>
<path d="M327.858 46.8449C327.858 47.1999 327.503 47.4365 327.149 47.3182C326.794 47.3182 326.557 46.9632 326.675 46.6083C326.675 46.2533 327.03 46.0167 327.385 46.135C327.622 46.135 327.858 46.49 327.858 46.8449Z" fill="#455A64"/>
<path d="M444.402 155.298L45.9082 155.298V141.1L444.402 141.1V155.298Z" fill="#37474F"/>
<path d="M430.204 169.446L60.2246 169.446V155.248L430.204 155.248V169.446Z" fill="#455A64"/>
<path d="M60.2247 368.314H54.4271L71.1099 169.422H85.7812L60.2247 368.314Z" fill="#455A64"/>
<path d="M85.7812 169.422L84.0065 182.674H70.045L71.1099 169.422H85.7812Z" fill="#29246A"/>
<path d="M430.086 368.314H435.884L419.201 169.422H404.53L430.086 368.314Z" fill="#455A64"/>
<path d="M404.529 169.422L406.304 182.674H420.266L419.201 169.422H404.529Z" fill="#29246A"/>
<path d="M215.93 137.595H293.665V141.026H215.93V137.595Z" fill="#C7C7C7"/>
<path d="M215.931 137.595H255.094V141.026H215.931V137.595Z" fill="#A6A6A6"/>
<path d="M250.834 141.026H175.111L165.172 89.5579H241.014L250.834 141.026Z" fill="#C7C7C7"/>
<path d="M212.618 115.351C212.854 117.954 210.961 119.965 208.358 119.965C205.755 119.965 203.507 117.954 203.389 115.351C203.152 112.748 205.045 110.737 207.648 110.737C210.133 110.737 212.381 112.748 212.618 115.351Z" fill="#A6A6A6"/>
<defs>
<linearGradient id="paint0_linear_6948_37315" x1="368.796" y1="136.155" x2="417.136" y2="151.636" gradientUnits="userSpaceOnUse">
<stop offset="0.045703" stop-color="#B93CE8"/>
<stop offset="1" stop-color="#FF9AEA"/>
</linearGradient>
<linearGradient id="paint1_linear_6948_37315" x1="441.985" y1="176.88" x2="478.779" y2="187.177" gradientUnits="userSpaceOnUse">
<stop offset="0.045703" stop-color="#B93CE8"/>
<stop offset="1" stop-color="#FF9AEA"/>
</linearGradient>
<linearGradient id="paint2_linear_6948_37315" x1="431.523" y1="115.713" x2="497.126" y2="137.289" gradientUnits="userSpaceOnUse">
<stop offset="0.045703" stop-color="#B93CE8"/>
<stop offset="1" stop-color="#FF9AEA"/>
</linearGradient>
<linearGradient id="paint3_linear_6948_37315" x1="401.807" y1="124.197" x2="427.42" y2="131.361" gradientUnits="userSpaceOnUse">
<stop offset="0.045703" stop-color="#B93CE8"/>
<stop offset="1" stop-color="#FF9AEA"/>
</linearGradient>
<linearGradient id="paint4_linear_6948_37315" x1="392.178" y1="157.689" x2="439.943" y2="170.101" gradientUnits="userSpaceOnUse">
<stop offset="0.045703" stop-color="#B93CE8"/>
<stop offset="1" stop-color="#FF9AEA"/>
</linearGradient>
<linearGradient id="paint5_linear_6948_37315" x1="246.819" y1="272.24" x2="368.394" y2="353.98" gradientUnits="userSpaceOnUse">
<stop stop-color="#F9A85D"/>
<stop offset="0.821513" stop-color="#FE5C73"/>
</linearGradient>
<linearGradient id="paint6_linear_6948_37315" x1="227.22" y1="298.531" x2="306.225" y2="350.038" gradientUnits="userSpaceOnUse">
<stop offset="0.045703" stop-color="#B93CE8"/>
<stop offset="1" stop-color="#FF9AEA"/>
</linearGradient>
<linearGradient id="paint7_linear_6948_37315" x1="132.867" y1="239.94" x2="259.96" y2="358.283" gradientUnits="userSpaceOnUse">
<stop stop-color="#F9A85D"/>
<stop offset="0.821513" stop-color="#FE5C73"/>
</linearGradient>
<linearGradient id="paint8_linear_6948_37315" x1="106.473" y1="264.559" x2="186.097" y2="321.091" gradientUnits="userSpaceOnUse">
<stop offset="0.045703" stop-color="#B93CE8"/>
<stop offset="1" stop-color="#FF9AEA"/>
</linearGradient>
<linearGradient id="paint9_linear_6948_37315" x1="253.452" y1="69.6563" x2="347.805" y2="150.916" gradientUnits="userSpaceOnUse">
<stop stop-color="#F9A85D"/>
<stop offset="0.821513" stop-color="#FE5C73"/>
</linearGradient>
<linearGradient id="paint10_linear_6948_37315" x1="204.551" y1="107.668" x2="253.325" y2="163.183" gradientUnits="userSpaceOnUse">
<stop stop-color="#F9A85D"/>
<stop offset="0.821513" stop-color="#FE5C73"/>
</linearGradient>
<linearGradient id="paint11_linear_6948_37315" x1="246.81" y1="32.4238" x2="328.99" y2="60.9462" gradientUnits="userSpaceOnUse">
<stop offset="0.045703" stop-color="#B93CE8"/>
<stop offset="1" stop-color="#FF9AEA"/>
</linearGradient>
<linearGradient id="paint12_linear_6948_37315" x1="292.044" y1="27.672" x2="383.795" y2="60.7414" gradientUnits="userSpaceOnUse">
<stop offset="0.045703" stop-color="#B93CE8"/>
<stop offset="1" stop-color="#FF9AEA"/>
</linearGradient>
<linearGradient id="paint13_linear_6948_37315" x1="325.385" y1="40.2352" x2="398.214" y2="72.3153" gradientUnits="userSpaceOnUse">
<stop offset="0.045703" stop-color="#B93CE8"/>
<stop offset="1" stop-color="#FF9AEA"/>
</linearGradient>
<linearGradient id="paint14_linear_6948_37315" x1="342.419" y1="107.157" x2="399.011" y2="172.425" gradientUnits="userSpaceOnUse">
<stop stop-color="#F9A85D"/>
<stop offset="0.821513" stop-color="#FE5C73"/>
</linearGradient>
<linearGradient id="paint15_linear_6948_37315" x1="318.47" y1="122.804" x2="399.659" y2="176.669" gradientUnits="userSpaceOnUse">
<stop stop-color="#F9A85D"/>
<stop offset="0.821513" stop-color="#FE5C73"/>
</linearGradient>
<linearGradient id="paint16_linear_6948_37315" x1="327.74" y1="89.5235" x2="389.301" y2="126.616" gradientUnits="userSpaceOnUse">
<stop offset="0.045703" stop-color="#B93CE8"/>
<stop offset="1" stop-color="#FF9AEA"/>
</linearGradient>
<linearGradient id="paint17_linear_6948_37315" x1="311.818" y1="46.3718" x2="343.064" y2="58.882" gradientUnits="userSpaceOnUse">
<stop stop-color="#F9A85D"/>
<stop offset="0.821513" stop-color="#FE5C73"/>
</linearGradient>
<linearGradient id="paint18_linear_6948_37315" x1="298.471" y1="16.554" x2="353.437" y2="47.5074" gradientUnits="userSpaceOnUse">
<stop stop-color="#F9A85D"/>
<stop offset="0.821513" stop-color="#FE5C73"/>
</linearGradient>
<linearGradient id="paint19_linear_6948_37315" x1="300.997" y1="29.7426" x2="315.578" y2="35.0166" gradientUnits="userSpaceOnUse">
<stop offset="0.045703" stop-color="#B93CE8"/>
<stop offset="1" stop-color="#FF9AEA"/>
</linearGradient>
<linearGradient id="paint20_linear_6948_37315" x1="288.081" y1="31.1321" x2="299.571" y2="34.2508" gradientUnits="userSpaceOnUse">
<stop offset="0.045703" stop-color="#B93CE8"/>
<stop offset="1" stop-color="#FF9AEA"/>
</linearGradient>
<linearGradient id="paint21_linear_6948_37315" x1="296.859" y1="40.2479" x2="299.549" y2="43.3201" gradientUnits="userSpaceOnUse">
<stop offset="0.045703" stop-color="#B93CE8"/>
<stop offset="1" stop-color="#FF9AEA"/>
</linearGradient>
<linearGradient id="paint22_linear_6948_37315" x1="312.95" y1="35.6357" x2="319.069" y2="45.7474" gradientUnits="userSpaceOnUse">
<stop offset="0.045703" stop-color="#B93CE8"/>
<stop offset="1" stop-color="#FF9AEA"/>
</linearGradient>
<linearGradient id="paint23_linear_6948_37315" x1="324.163" y1="36.385" x2="337.971" y2="43.1304" gradientUnits="userSpaceOnUse">
<stop stop-color="#F9A85D"/>
<stop offset="0.821513" stop-color="#FE5C73"/>
</linearGradient>
</defs>
</svg>
