<svg width="492" height="306" viewBox="0 0 492 306" fill="none" xmlns="http://www.w3.org/2000/svg">
<path d="M62.2088 182.348L53.892 182.487C51.1135 182.547 48.3202 182.535 45.534 182.557L44.9802 182.561L44.9768 182L44.91 168.029L44.9072 167.402L45.534 167.405L62.0648 167.484C67.5745 167.49 73.0853 167.624 78.5955 167.689L78.9395 167.692L78.9367 168.029C78.9131 170.399 78.8291 172.757 78.7724 175.087L78.5955 182L62.2088 182.348ZM78.4185 174.94C78.3621 172.615 78.2781 170.316 78.255 168.029L78.5955 168.369C73.0853 168.433 67.5745 168.567 62.0648 168.574L45.534 168.653L46.1575 168.029L46.0897 182L45.534 181.443C48.2581 181.465 50.9741 181.453 53.7063 181.511L61.9203 181.652L78.5955 182L78.4185 174.94Z" fill="#E7E8E5"/>
<path d="M0 259.694L14.679 259.694H30.7893L60.617 260.178L122.243 260.114L245.495 259.994L368.748 260.114L430.374 260.177L492 260.352L430.374 260.527L368.748 260.59L245.495 260.709L122.243 260.589L60.617 260.526H30.7893H0V259.694Z" fill="#17282F"/>
<path d="M109.861 86.8327V92.9114L114.76 89.872L109.861 86.8327Z" fill="white"/>
<path d="M118.558 89.9597C118.558 89.7523 118.501 89.5704 118.419 89.4455C118.335 89.3254 118.239 89.2672 118.15 89.2708C118.06 89.2672 117.962 89.3254 117.876 89.4455C117.795 89.5704 117.737 89.7523 117.737 89.9597C117.737 90.1647 117.795 90.349 117.876 90.4715C117.962 90.594 118.06 90.6498 118.15 90.6498C118.239 90.6498 118.335 90.594 118.419 90.4715C118.501 90.349 118.558 90.1647 118.558 89.9597ZM117.417 89.9597C117.419 89.6941 117.486 89.4552 117.613 89.2708C117.735 89.0853 117.922 88.9494 118.15 88.9494C118.373 88.9494 118.563 89.0853 118.684 89.2708C118.809 89.4552 118.878 89.6941 118.878 89.9597C118.878 90.2229 118.809 90.4654 118.684 90.6498C118.563 90.8317 118.373 90.97 118.15 90.97C117.922 90.97 117.735 90.8317 117.613 90.6498C117.486 90.4654 117.419 90.2229 117.417 89.9597Z" fill="white"/>
<path d="M120.613 89.9597C120.613 89.7523 120.555 89.5704 120.475 89.4455C120.391 89.3254 120.295 89.2672 120.206 89.2708C120.116 89.2672 120.017 89.3254 119.931 89.4455C119.851 89.5704 119.792 89.7523 119.792 89.9597C119.792 90.1647 119.851 90.349 119.931 90.4715C120.017 90.594 120.116 90.6498 120.206 90.6498C120.295 90.6498 120.391 90.594 120.475 90.4715C120.555 90.349 120.613 90.1647 120.613 89.9597ZM119.473 89.9597C119.475 89.6941 119.541 89.4552 119.668 89.2708C119.79 89.0853 119.977 88.9494 120.206 88.9494C120.429 88.9494 120.618 89.0853 120.74 89.2708C120.864 89.4552 120.933 89.6941 120.933 89.9597C120.933 90.2229 120.864 90.4654 120.74 90.6498C120.618 90.8317 120.429 90.97 120.206 90.97C119.977 90.97 119.79 90.8317 119.668 90.6498C119.541 90.4654 119.475 90.2229 119.473 89.9597Z" fill="white"/>
<path d="M121.806 90.5607C121.924 90.5607 122.023 90.659 122.023 90.7778C122.023 90.8955 121.924 90.9913 121.806 90.9913C121.687 90.9913 121.592 90.8955 121.592 90.7778C121.592 90.659 121.687 90.5607 121.806 90.5607ZM121.806 89.4122C121.924 89.4122 122.023 89.5104 122.023 89.6293C122.023 89.7469 121.924 89.8415 121.806 89.8415C121.687 89.8415 121.592 89.7469 121.592 89.6293C121.592 89.5104 121.687 89.4122 121.806 89.4122Z" fill="white"/>
<path d="M123.365 89.9597C123.365 89.7523 123.307 89.5704 123.227 89.4455C123.142 89.3254 123.047 89.2672 122.958 89.2708C122.868 89.2672 122.769 89.3254 122.683 89.4455C122.602 89.5704 122.544 89.7523 122.544 89.9597C122.544 90.1647 122.602 90.349 122.683 90.4715C122.769 90.594 122.868 90.6498 122.958 90.6498C123.047 90.6498 123.142 90.594 123.227 90.4715C123.307 90.349 123.365 90.1647 123.365 89.9597ZM122.225 89.9597C122.227 89.6941 122.293 89.4552 122.42 89.2708C122.542 89.0853 122.729 88.9494 122.958 88.9494C123.18 88.9494 123.37 89.0853 123.492 89.2708C123.616 89.4552 123.685 89.6941 123.685 89.9597C123.685 90.2229 123.616 90.4654 123.492 90.6498C123.37 90.8317 123.18 90.97 122.958 90.97C122.729 90.97 122.542 90.8317 122.42 90.6498C122.293 90.4654 122.227 90.2229 122.225 89.9597Z" fill="white"/>
<path d="M125.421 89.9597C125.421 89.7523 125.363 89.5704 125.282 89.4455C125.198 89.3254 125.102 89.2672 125.013 89.2708C124.923 89.2672 124.825 89.3254 124.738 89.4455C124.658 89.5704 124.6 89.7523 124.6 89.9597C124.6 90.1647 124.658 90.349 124.738 90.4715C124.825 90.594 124.923 90.6498 125.013 90.6498C125.102 90.6498 125.198 90.594 125.282 90.4715C125.363 90.349 125.421 90.1647 125.421 89.9597ZM124.28 89.9597C124.283 89.6941 124.349 89.4552 124.476 89.2708C124.598 89.0853 124.785 88.9494 125.013 88.9494C125.236 88.9494 125.425 89.0853 125.548 89.2708C125.672 89.4552 125.74 89.6941 125.74 89.9597C125.74 90.2229 125.672 90.4654 125.548 90.6498C125.425 90.8317 125.236 90.97 125.013 90.97C124.785 90.97 124.598 90.8317 124.476 90.6498C124.349 90.4654 124.283 90.2229 124.28 89.9597Z" fill="white"/>
<path d="M102.223 273.732V271.339L230.139 268.493L281.988 290.081V292.475L155.453 305.484L102.223 273.732Z" fill="url(#paint0_linear_6948_37614)"/>
<path d="M155.453 305.484L102.223 273.732V271.339L230.139 268.493L281.988 290.081V292.475L155.453 305.484Z" fill="#29246A"/>
<path d="M102.223 271.339L230.139 263.671L281.988 290.08L155.453 303.088L102.223 271.339Z" fill="url(#paint1_linear_6948_37614)"/>
<path d="M109.912 271.815L158.628 300.967L277.2 288.833L227.028 263.479C227.028 263.479 192.679 262.669 191.033 262.815C189.387 262.962 173.531 265.373 173.531 265.373C173.531 265.373 152.132 265.451 150.64 265.606C149.148 265.762 109.912 271.815 109.912 271.815Z" fill="#E7E8E5"/>
<path d="M173.53 265.373L179.472 268.956L185.365 272.572L197.072 279.86L208.673 287.221L214.434 290.929L220.145 294.671L214.203 291.088L208.311 287.471L196.603 280.184L185.005 272.821L179.244 269.113L173.53 265.373" fill="#BEBFBD"/>
<path d="M179.658 283.365C181.151 283.217 182.655 283.119 184.16 283.025C185.665 282.93 187.175 282.869 188.685 282.807C190.198 282.756 191.71 282.707 193.225 282.691C194.738 282.67 196.253 282.658 197.769 282.696C196.267 282.843 194.763 282.943 193.259 283.034C191.755 283.13 190.249 283.192 188.741 283.254C187.233 283.303 185.725 283.353 184.211 283.369C182.698 283.388 181.183 283.4 179.658 283.365" fill="#BEBFBD"/>
<path d="M152.144 290.212C156.14 289.464 160.154 288.759 164.172 288.068C168.189 287.367 172.225 286.722 176.257 286.061C178.274 285.73 180.295 285.427 182.338 285.139C182.868 285.065 183.408 285.025 183.923 285.011L185.48 284.948L188.594 284.842C192.745 284.733 196.897 284.632 201.053 284.596C196.912 284.836 192.768 285.017 188.625 285.211L185.519 285.346C184.492 285.407 183.426 285.402 182.468 285.549C180.45 285.839 178.435 286.181 176.413 286.488L164.294 288.387C160.25 289.013 156.204 289.632 152.144 290.212" fill="#BEBFBD"/>
<path d="M155.547 292.288C159.423 291.538 163.316 290.829 167.215 290.137C171.109 289.428 175.027 288.783 178.938 288.117C180.895 287.783 182.856 287.471 184.83 287.175C185.328 287.103 185.812 287.025 186.342 286.967C186.862 286.92 187.365 286.909 187.871 286.885L190.898 286.774C194.936 286.664 198.972 286.57 203.013 286.544C198.989 286.783 194.959 286.961 190.931 287.155L187.912 287.289C187.412 287.317 186.904 287.331 186.425 287.381C185.961 287.434 185.463 287.516 184.975 287.59L179.099 288.538C175.174 289.163 171.267 289.836 167.338 290.449C163.414 291.079 159.487 291.7 155.547 292.288" fill="#BEBFBD"/>
<path d="M158.991 294.076C162.917 293.427 166.855 292.818 170.8 292.224C174.74 291.615 178.701 291.071 182.654 290.504C184.642 290.228 186.591 289.942 188.639 289.736L194.672 289.31C198.7 289.056 202.728 288.795 206.765 288.601C202.763 289.005 198.75 289.343 194.738 289.686L188.711 290.158C186.764 290.368 184.765 290.677 182.789 290.928C178.824 291.456 174.874 292.027 170.904 292.54C166.939 293.069 162.97 293.588 158.991 294.076Z" fill="#BEBFBD"/>
<path d="M217.059 288.201C220.732 287.486 224.439 286.857 228.174 286.304C229.109 286.167 230.041 286.022 230.985 285.903C231.461 285.847 231.925 285.789 232.431 285.751L233.861 285.661L239.573 285.311C243.382 285.068 247.195 284.87 251.004 284.649C254.815 284.431 258.629 284.235 262.443 284.05C258.645 284.349 254.845 284.64 251.042 284.907C247.237 285.173 243.436 285.459 239.629 285.701L233.919 286.08L232.494 286.174C232.051 286.213 231.577 286.278 231.114 286.339L228.31 286.713C224.573 287.24 220.83 287.757 217.059 288.201" fill="#BEBFBD"/>
<path d="M213.854 285.891C217.462 285.331 221.089 284.836 224.737 284.416C226.565 284.203 228.373 283.968 230.25 283.856L235.775 283.491C239.457 283.24 243.144 283.027 246.83 282.8C250.516 282.571 254.205 282.369 257.897 282.175C254.225 282.485 250.55 282.788 246.87 283.065C243.192 283.341 239.514 283.632 235.831 283.886L230.309 284.278C229.39 284.334 228.503 284.442 227.584 284.537L224.843 284.822C221.193 285.223 217.532 285.585 213.854 285.891" fill="#BEBFBD"/>
<path d="M210.724 283.803C214.311 283.262 217.914 282.774 221.537 282.36C223.353 282.154 225.146 281.923 226.996 281.776L232.505 281.511C236.171 281.334 239.842 281.189 243.512 281.037C247.181 280.881 250.853 280.752 254.526 280.632C250.867 280.871 247.208 281.103 243.545 281.305C239.883 281.514 236.222 281.728 232.557 281.91C230.729 282.009 228.883 282.091 227.071 282.203L221.64 282.761C218.015 283.153 214.375 283.502 210.724 283.803" fill="#BEBFBD"/>
<path d="M207.999 282.215C211.508 281.43 215.075 280.793 218.683 280.232C219.135 280.16 219.589 280.099 220.053 280.047C220.52 279.987 221.013 279.966 221.47 279.952L224.241 279.863L229.78 279.704C237.167 279.517 244.555 279.351 251.947 279.25C244.569 279.569 237.188 279.83 229.808 280.09L224.271 280.273L221.506 280.374C220.587 280.38 219.748 280.547 218.827 280.661C215.226 281.174 211.64 281.767 207.999 282.215Z" fill="#BEBFBD"/>
<path d="M205.051 280.317C208.559 279.533 212.126 278.895 215.734 278.334C216.187 278.263 216.639 278.202 217.105 278.151C217.571 278.089 218.064 278.07 218.522 278.055L221.293 277.966L226.832 277.808C234.218 277.619 241.605 277.455 248.997 277.353C241.62 277.672 234.238 277.934 226.858 278.192L221.323 278.375L218.558 278.476C217.637 278.482 216.798 278.649 215.879 278.765C212.278 279.277 208.692 279.87 205.051 280.317" fill="#BEBFBD"/>
<path d="M202.101 278.42C205.609 277.635 209.176 276.998 212.784 276.437C213.237 276.365 213.69 276.305 214.155 276.253C214.622 276.193 215.114 276.171 215.571 276.157L218.343 276.068L223.882 275.909C231.269 275.722 238.656 275.556 246.047 275.454C238.671 275.776 231.289 276.037 223.908 276.295L218.373 276.48L215.609 276.579C214.688 276.585 213.848 276.752 212.929 276.866C209.328 277.381 205.741 277.972 202.101 278.42" fill="#BEBFBD"/>
<path d="M199.151 276.521C202.661 275.738 206.227 275.1 209.835 274.539C210.287 274.469 210.741 274.408 211.207 274.355C211.672 274.295 212.165 274.275 212.622 274.26L215.393 274.172L220.934 274.012C228.32 273.825 235.707 273.659 243.099 273.558C235.721 273.877 228.34 274.138 220.96 274.397L215.425 274.582L212.66 274.683C211.739 274.686 210.9 274.855 209.981 274.97C206.38 275.483 202.792 276.075 199.151 276.521" fill="#BEBFBD"/>
<path d="M195.158 274.819C198.667 274.035 202.234 273.398 205.842 272.835C206.294 272.765 206.748 272.704 207.212 272.653C207.679 272.591 208.172 272.571 208.629 272.556L211.4 272.467L216.939 272.309C224.326 272.121 231.714 271.956 239.106 271.854C231.728 272.174 224.347 272.435 216.966 272.693L211.431 272.877L208.667 272.978C207.746 272.984 206.906 273.152 205.986 273.267C202.385 273.778 198.799 274.373 195.158 274.819" fill="#BEBFBD"/>
<path d="M191.279 273.14C194.789 272.355 198.355 271.719 201.963 271.156C202.415 271.087 202.869 271.024 203.333 270.974C203.8 270.912 204.293 270.892 204.75 270.877L207.521 270.789L213.062 270.629C220.448 270.441 227.835 270.276 235.226 270.174C227.849 270.495 220.468 270.755 213.088 271.014L207.552 271.198L204.788 271.299C203.867 271.305 203.028 271.472 202.107 271.587C198.508 272.1 194.92 272.692 191.279 273.14" fill="#BEBFBD"/>
<path d="M188.329 271.244C191.833 270.46 195.394 269.823 198.996 269.263C199.447 269.192 199.899 269.13 200.364 269.079C200.826 269.017 201.322 268.996 201.782 268.985L204.552 268.925L210.086 268.828C217.465 268.728 224.843 268.653 232.225 268.642C224.852 268.873 217.477 269.043 210.103 269.215L204.572 269.335L201.811 269.407C200.902 269.406 200.056 269.581 199.14 269.693C195.545 270.206 191.965 270.796 188.329 271.244Z" fill="#BEBFBD"/>
<path d="M185.381 269.344C188.879 268.563 192.433 267.927 196.029 267.366C196.481 267.297 196.932 267.234 197.395 267.183C197.853 267.12 198.352 267.099 198.816 267.092L201.584 267.063L207.112 267.039C214.48 267.036 221.848 267.063 229.216 267.155C221.85 267.283 214.482 267.35 207.117 267.424L201.593 267.474L198.837 267.514C197.94 267.506 197.086 267.688 196.174 267.797C192.585 268.31 189.01 268.899 185.381 269.344" fill="#BEBFBD"/>
<path d="M182.432 267.448C185.923 266.668 189.471 266.034 193.06 265.473C193.51 265.403 193.959 265.339 194.422 265.289C194.875 265.225 195.376 265.203 195.848 265.203L198.613 265.226L204.129 265.318C207.805 265.387 211.479 265.492 215.152 265.586C218.826 265.686 222.5 265.798 226.172 265.932C218.817 265.889 211.465 265.79 204.114 265.703L198.603 265.637L195.854 265.626C194.976 265.605 194.11 265.797 193.204 265.903C189.622 266.415 186.054 267.003 182.432 267.448" fill="#BEBFBD"/>
<path d="M162.325 296.629C166.319 296.044 170.324 295.502 174.333 294.974C178.34 294.435 182.362 293.95 186.379 293.445C188.395 293.196 190.389 292.964 192.442 292.755L198.525 292.249C202.585 291.937 206.645 291.623 210.718 291.369C206.685 291.823 202.639 292.218 198.592 292.613L192.517 293.171C190.53 293.379 188.508 293.652 186.499 293.878L174.425 295.299C170.398 295.76 166.368 296.214 162.325 296.629" fill="#BEBFBD"/>
<path d="M219.331 290.37C223.356 289.841 227.393 289.353 231.433 288.882C235.469 288.398 239.52 287.971 243.566 287.521C245.596 287.299 247.604 287.094 249.67 286.915L255.79 286.492C259.871 286.235 263.953 285.977 268.048 285.78C263.988 286.178 259.916 286.517 255.844 286.857L249.732 287.33C247.732 287.511 245.694 287.756 243.672 287.955L231.514 289.207C227.458 289.613 223.4 290.011 219.331 290.37" fill="#BEBFBD"/>
<path d="M102.2 121.319C111.33 162.43 130.49 211.767 138.759 219.812C149.217 229.988 218.787 249.011 222.261 249.411C230.865 250.341 247.813 192.923 238.657 191.533C224.715 189.417 174.738 181.861 171.719 178.717C168.587 175.429 147.368 148.269 125.565 117.596C110.518 96.3983 96.5356 95.8113 102.2 121.319" fill="url(#paint2_linear_6948_37614)"/>
<path d="M215.464 247.237C216.416 247.728 229.924 254.645 238.292 257.136C244.533 258.993 262.644 263.86 265.371 257.192C267.238 252.646 256.925 248.53 249.697 245.457C245.89 243.839 241.211 239.806 242.356 237.359C244.354 233.081 254.155 237.463 260.594 241.267C273.045 248.621 289.605 261.818 297.288 255.531C300.189 253.153 296.869 248.762 291.996 244.447C299.917 249.493 308.375 253.647 311.703 251.134C313.614 249.703 313.717 247.72 312.674 245.448C315.126 246.264 317.298 246.124 318.824 244.534C321.43 241.846 320.198 237.842 317.398 233.725C318.306 233.637 319.125 233.181 319.758 232.198C325.297 223.887 298.053 199.711 288.587 197.398C260.74 190.566 231.336 191.588 231.336 191.588C220.316 200.265 215.442 247.218 215.464 247.237" fill="url(#paint3_linear_6948_37614)"/>
<path d="M256.669 221.852C263.232 222.929 269.68 225.433 275.223 229.15C282.262 233.866 286.913 239.364 292.807 244.909C292.963 245.055 292.742 245.3 292.585 245.154C289.776 242.519 278.132 232.601 275.121 230.346C269.605 226.211 263.429 223.291 256.644 221.966L256.669 221.852" fill="#17282F"/>
<path d="M261.953 210.053C269.27 212.111 276.767 214.193 283.548 217.71C290.967 221.558 296.75 227.787 302.438 233.782C305.852 237.383 309.193 241.053 312.44 244.806C312.576 244.964 312.365 245.209 312.218 245.051C306.449 238.857 300.494 232.832 294.357 227.004C288.583 221.522 282.129 217.31 274.703 214.419C270.52 212.789 266.219 211.484 261.925 210.184L261.953 210.053" fill="#17282F"/>
<path d="M269.86 199.759C276.972 201.273 283.178 202.571 289.457 206.432C297.771 211.545 305.771 220.118 308.578 223.157C311.678 226.514 314.662 229.971 317.595 233.475C317.715 233.616 317.469 233.829 317.346 233.688C310.642 226.024 303.411 218.742 295.77 212.01C292.12 208.792 288.148 205.986 283.677 204.023C279.259 202.081 274.517 200.965 269.849 199.808L269.86 199.759Z" fill="#17282F"/>
<path d="M227.616 183.674L205.69 251.426C205.69 251.426 147.775 234.441 137.253 222.926C126.729 211.41 107.582 152.21 102.031 123.545C96.4782 94.8802 110.948 95.6904 124.12 113.834C137.293 131.978 170.096 175.958 171.941 176.922C173.785 177.887 227.616 183.674 227.616 183.674Z" fill="url(#paint4_linear_6948_37614)"/>
<path d="M199.32 220.402C201.802 212.838 204.347 205.292 206.548 197.632C207.798 193.28 209.073 188.933 210.282 184.569C210.328 184.404 210.052 184.301 209.991 184.463C207.198 191.953 204.413 199.473 201.965 207.093C199.528 214.676 197.027 222.236 194.689 229.854C193.36 234.184 192.166 238.539 191.102 242.949L191.256 243.005C194.302 235.604 196.82 228.019 199.32 220.402" fill="#17282F"/>
<path d="M176.488 241.881C175.632 241.574 174.777 241.269 173.922 240.962C171.255 239.988 168.56 238.975 165.901 237.937C169.41 239.303 172.991 240.628 176.487 241.877C176.487 241.878 176.487 241.88 176.488 241.881V241.881ZM159.268 235.264C158.824 235.082 158.385 234.896 157.952 234.708C158.388 234.894 158.826 235.078 159.268 235.264ZM157.503 234.517C156.699 234.176 155.897 233.826 155.119 233.477C155.902 233.825 156.697 234.171 157.503 234.517ZM155.013 233.43C154.562 233.237 154.13 233.033 153.69 232.84C153.53 232.764 153.369 232.699 153.208 232.623C152.919 232.489 152.632 232.354 152.347 232.22C153.216 232.623 154.106 233.027 155.013 233.43ZM149.956 231.08C149.283 230.752 148.625 230.425 147.982 230.096C147.982 230.092 147.984 230.097 147.982 230.094C148.623 230.421 149.281 230.751 149.956 231.08Z" fill="#E0E1DE"/>
<path d="M176.488 241.877C172.991 240.628 169.411 239.303 165.901 237.937C163.751 237.098 161.625 236.244 159.557 235.38C159.46 235.341 159.364 235.303 159.268 235.264C158.827 235.078 158.389 234.894 157.952 234.708C157.899 234.685 157.847 234.662 157.793 234.639C157.696 234.598 157.601 234.558 157.504 234.516C156.697 234.171 155.903 233.825 155.119 233.477C155.093 233.465 155.065 233.453 155.037 233.441C155.028 233.437 155.021 233.434 155.014 233.43C154.106 233.027 153.216 232.623 152.348 232.22C152.172 232.136 151.996 232.052 151.82 231.97C151.187 231.673 150.565 231.377 149.956 231.079C149.282 230.751 148.623 230.421 147.983 230.094C144.696 203.505 138.353 164.559 129.366 135.822C147.985 177.843 169.004 226.911 176.488 241.877" fill="#29246A"/>
<path d="M150.644 260.202L8.37015 259.809C8.70888 256.999 48.3319 123.838 75.6587 101.123C87.3056 91.4408 108.719 98.5443 111.444 100.77C137.873 122.349 152.636 258.56 150.644 260.202Z" fill="url(#paint5_linear_6948_37614)"/>
<path d="M65.3356 118.314C34.1837 156.205 -1.96727 231.552 7.42449 245.652C17.8855 261.357 60.8642 209.994 60.4223 207.163C60.0883 205.024 72.8621 159.063 82.6784 125.588C92.4861 92.1443 73.0393 108.944 65.3356 118.314Z" fill="url(#paint6_linear_6948_37614)"/>
<path d="M60.7471 207.187C61.7756 202.305 79.3264 141.633 84.1838 122.511C89.0403 103.388 82.4598 98.2034 65.3268 116.869C48.1935 135.535 13.0999 193.063 6.49191 224C0.125095 253.803 14.3696 255.331 32.8489 240.183C47.9783 227.782 60.7471 207.187 60.7471 207.187Z" fill="url(#paint7_linear_6948_37614)"/>
<path d="M58.5146 215.027C59.8639 209.276 61.3411 203.56 62.8368 197.849C64.33 192.137 65.9285 186.455 67.4696 180.758C69.1051 175.085 70.6898 169.401 72.373 163.742L74.9204 155.261C75.8125 152.444 76.6639 149.619 77.5914 146.814C76.9286 149.692 76.1905 152.551 75.4931 155.421L73.2712 163.993C71.7746 169.703 70.1805 175.386 68.6365 181.084C66.9982 186.755 65.4168 192.441 63.7317 198.098C62.0479 203.757 60.3453 209.409 58.5146 215.027Z" fill="#17282F"/>
<path d="M74.1328 160.076C74.5695 158.545 75.2376 157.144 75.9539 155.773C76.6887 154.406 77.4974 153.096 78.4535 151.833C78.1469 153.404 77.4681 154.822 76.7565 156.201C76.0112 157.564 75.1954 158.891 74.1328 160.076Z" fill="#17282F"/>
<path d="M7.79042 246.29C16.842 257.022 36.565 257.902 91.9296 263.62C99.5903 264.413 121.305 210.817 113.167 209.551C102.918 207.957 62.7945 203.992 59.8241 204.073C34.7675 204.751 1.65101 239.009 7.79042 246.29Z" fill="url(#paint8_linear_6948_37614)"/>
<path d="M142.712 194.742C142.712 194.742 136.69 184.014 144.341 180.501C151.99 176.99 156.202 188.551 156.202 188.551L142.712 194.742Z" fill="#33535F"/>
<path d="M192.099 266.734V266.743L191.477 278.767L191.295 282.736L188.132 280.311L178.604 272.935L178.594 272.936L178.593 272.915L142.506 194.296L156.001 188.104L192.089 266.734H192.099" fill="#33535F"/>
<path d="M191.481 278.771L191.291 282.739L188.128 280.31L191.481 278.771Z" fill="#273E47"/>
<path d="M158.37 190.293L142.619 197.524L141.185 194.398L156.937 187.168L158.37 190.293Z" fill="#273E47"/>
<path d="M159.957 193.748L144.206 200.979L142.771 197.854L158.522 190.623L159.957 193.748" fill="#273E47"/>
<path d="M144.206 200.978L149.288 198.645L159.543 228.376L157.621 229.128L144.206 200.978" fill="#273E47"/>
<path d="M181.562 241.991C179.151 248.614 163.326 241.285 163.326 241.285C163.326 241.285 166.33 245.117 165.831 249.768C165.259 255.094 156.657 256.534 156.657 256.534C156.657 256.534 158.894 261.04 157.873 265.901C156.813 270.945 148.339 273.634 148.339 273.634C148.339 273.634 148.117 278.979 144.221 282.546C137.561 288.644 124.27 284.953 115.798 282.694C107.326 280.435 84.1706 264.121 79.7178 261.809L94.9942 209.279C94.9942 209.279 135.869 208.603 145.452 212.675C153.527 216.105 185.246 231.87 181.562 241.991" fill="url(#paint9_linear_6948_37614)"/>
<path d="M163.259 241.046C155.549 235.34 146.489 231.489 137.706 227.87C137.511 227.789 137.387 228.097 137.584 228.176C146.361 231.675 154.414 237.603 163.033 241.444C163.271 241.55 163.466 241.2 163.259 241.046" fill="#17282F"/>
<path d="M156.666 255.775C154.883 254.537 152.697 253.891 150.669 253.17C148.484 252.396 146.288 251.66 144.08 250.957C139.659 249.551 135.205 248.245 130.717 247.071C130.518 247.019 130.389 247.31 130.594 247.376C134.998 248.786 139.38 250.262 143.721 251.854C145.893 252.652 148.058 253.468 150.218 254.299C152.226 255.072 154.282 256.053 156.427 256.363C156.744 256.41 156.934 255.962 156.666 255.775" fill="#17282F"/>
<path d="M148.155 273.57C146.648 272.431 144.417 272.041 142.631 271.513C140.604 270.914 138.579 270.304 136.558 269.682C132.518 268.44 128.478 267.196 124.482 265.813C124.283 265.743 124.159 266.047 124.36 266.118C128.412 267.544 132.444 269.024 136.509 270.414C138.504 271.097 140.504 271.768 142.508 272.428C144.212 272.989 146.276 273.884 148.101 273.775L148.155 273.57" fill="#17282F"/>
<path d="M106.87 207.621L64.0256 265.02C64.0256 265.02 15.4119 258.107 7.18942 246.39C1.77722 238.679 34.4845 202.653 62.2277 204.009L106.87 207.621" fill="url(#paint10_linear_6948_37614)"/>
<path d="M30.3313 215.609C34.4598 212.007 46.2202 203.416 62.2622 203.965C62.4033 203.97 62.4275 204.194 62.2835 204.204C50.295 204.951 34.724 212.668 30.4546 215.797C30.3427 215.878 30.2281 215.7 30.3313 215.609" fill="#17282F"/>
<path d="M50.187 257.317C54.5603 250.753 59.2789 244.429 64.0161 238.118C68.756 231.805 73.484 225.479 78.3813 219.282C81.148 215.781 83.8954 212.263 86.7838 208.858L86.9592 208.975C82.5968 215.529 77.8976 221.879 73.2116 228.21C68.5134 234.557 63.7445 240.86 58.9208 247.112C56.1947 250.645 53.4048 254.13 50.5183 257.536C50.3751 257.704 50.0592 257.508 50.187 257.317" fill="#17282F"/>
<path d="M106.893 206.925C103.897 206.226 100.838 205.993 97.7753 205.703C94.7167 205.411 91.653 205.173 88.5882 204.962C82.4928 204.543 69.6218 202.962 58.5292 203.999C58.4071 204.011 59.0893 204.549 59.2106 204.532C64.4668 203.767 103.009 207.863 106.138 207.801C106.035 208.016 105.935 208.231 105.861 208.465C105.811 208.623 105.982 208.808 106.136 208.683C106.501 208.385 106.749 208.033 107.09 207.711C107.37 207.448 107.282 207.016 106.893 206.925" fill="#17282F"/>
<path d="M37.1086 259.902C32.4222 259.116 27.8571 257.781 23.3947 256.167C18.9642 254.504 14.5563 252.556 10.7246 249.72C12.8731 250.734 15.0481 251.625 17.2227 252.517C19.4058 253.39 21.6063 254.218 23.8135 255.029C28.2271 256.667 32.6785 258.197 37.1086 259.902" fill="#17282F"/>
<path d="M108.777 127.179C108.777 127.179 81.4712 109.945 66.9562 113.586L56.9112 127.266C56.9112 127.266 53.1229 129.476 51.3089 127.166C46.8225 121.449 42.8865 106.139 54.0184 93.2651C64.2122 81.4753 84.2758 77.8805 101.833 78.6943C118.693 79.4741 134.81 87.0943 132.148 98.553C129.486 110.013 108.777 127.179 108.777 127.179Z" fill="url(#paint11_linear_6948_37614)"/>
<path d="M109.326 121.943C109.326 121.943 108.986 121.574 108.347 120.925C109.104 120.81 109.81 120.607 110.452 120.31C110.655 120.217 110.849 120.112 111.035 120C109.986 121.22 109.326 121.943 109.326 121.943ZM113.609 116.92C116.11 111.227 113.55 101.177 112.36 98.0439C112.324 97.9069 112.271 97.7929 112.24 97.6959C111.964 97.0458 111.742 96.3484 111.572 95.5855C110.918 92.4783 110.6 89.0812 110.466 85.9473C118.265 88.0224 125.195 91.5651 125.051 96.7838C124.904 102.127 118.215 111.252 113.609 116.92ZM79.4379 100.445C74.3734 98.3192 69.0285 96.9294 63.713 96.9294C63.5922 96.9294 63.4699 96.9293 63.3486 96.9318C63.4518 96.631 63.6016 96.3351 63.8005 96.044C67.4315 90.7173 72.0084 87.2887 77.9233 85.4015C78.1085 86.8897 78.2772 88.3572 78.4321 89.781C78.8575 93.8464 79.1725 97.5758 79.4379 100.445Z" fill="#29246A"/>
<path d="M110.452 120.31C103.098 123.716 87.424 114.616 80.2314 106.115C79.7415 105.531 79.3355 98.4102 78.4325 89.781C77.8636 84.5465 77.1074 78.7311 76.0343 73.4747C75.8088 72.3977 110.637 74.753 110.637 74.753C110.637 74.753 109.645 86.4337 111.573 95.5856C111.743 96.3484 111.964 97.0458 112.24 97.6959C112.272 97.7929 112.325 97.9069 112.36 98.044C113.865 102.005 117.558 117.015 110.452 120.31" fill="url(#paint12_linear_6948_37614)"/>
<path d="M78.0889 73.2006C81.4321 81.774 91.3441 102.114 109.016 98.922C110.246 98.7013 111.359 98.4114 112.351 98.05C112.33 97.9008 112.272 97.8014 112.235 97.6971C111.967 97.0397 111.738 96.3533 111.563 95.5953C109.635 86.4264 110.634 74.7457 110.634 74.7457C110.634 74.7457 85.5107 73.0478 78.0889 73.2006" fill="#17282F"/>
<path d="M65.5736 32.3809C63.5469 44.6885 74.3605 78.0131 83.7901 84.5053C97.4599 93.9168 117.563 92.3025 124.985 76.3904C132.178 60.9682 117.317 17.7858 106.997 12.1207C91.7952 3.77655 68.5683 14.2007 65.5736 32.3809" fill="url(#paint13_linear_6948_37614)"/>
<path d="M101.812 48.7771L101.712 49.0354C102.584 51.2282 103.214 53.8891 101.472 55.3506L101.536 55.4682C103.861 54.2384 102.99 50.7164 101.812 48.7771Z" fill="#17282F"/>
<path d="M98.9914 47.1752C95.3246 48.1916 97.6314 55.4539 101.029 54.5091C104.373 53.5813 102.066 46.3214 98.9914 47.1752Z" fill="#17282F"/>
<path d="M114.422 44.8444L114.658 44.9862C115.302 47.2579 116.421 49.7526 118.692 49.8521L118.714 49.9831C116.12 50.4233 114.667 47.0978 114.422 44.8444Z" fill="#17282F"/>
<path d="M115.683 41.8561C119.214 40.4334 121.803 47.5975 118.532 48.9159C115.313 50.2148 112.725 43.0495 115.683 41.8561Z" fill="#17282F"/>
<path d="M95.1645 45.6717C96.1594 45.2775 97.0112 44.7488 97.955 44.2564C99.0195 43.7021 99.9243 43.3698 100.525 42.271C100.847 41.6815 100.557 40.738 100.013 40.3717C98.7485 39.5179 97.276 39.8732 95.967 40.4881C94.5477 41.1564 93.6244 42.0345 92.9464 43.4462C92.2883 44.8142 93.8526 46.192 95.1645 45.6717" fill="#17282F"/>
<path d="M117.331 35.4986C116.272 35.6538 115.27 35.6211 114.207 35.666C113.008 35.7181 112.058 35.883 110.99 35.2305C110.416 34.88 110.196 33.9195 110.483 33.3301C111.151 31.9584 112.605 31.5302 114.046 31.409C115.609 31.278 116.848 31.5776 118.141 32.4617C119.394 33.318 118.727 35.2924 117.331 35.4986" fill="#17282F"/>
<path d="M104.696 70.8674C105.403 71.2227 106.17 71.777 107.007 71.5865C107.811 71.4034 108.617 70.7582 109.245 70.2525L109.379 70.3361C109.07 71.3864 108.014 72.3155 106.913 72.4646C105.838 72.6102 105.055 71.891 104.512 71.0372C104.436 70.9183 104.593 70.8152 104.696 70.8674" fill="#17282F"/>
<path d="M104.921 63.3817C106.8 64.9341 108.99 65.4131 111.115 65.1657C112.065 65.0614 113.015 64.7934 113.91 64.415C114.09 64.3543 114.264 64.2767 114.417 64.1882C114.574 64.1154 114.716 64.0511 114.885 63.9565C115.137 63.834 115.211 63.5721 115.177 63.3089L115.171 63.2931L115.076 63.07L115.072 63.0518L115.005 62.8565C114.502 61.1113 113.496 58.5304 113.496 58.5304C114.23 58.6468 117.917 59.0725 117.579 58.1835C114.752 50.8363 111.608 42.6655 107.244 35.9513C107.112 35.7221 106.752 35.8992 106.851 36.1393C109.289 43.3083 112.97 50.0006 115.534 57.1623C114.379 57.0981 112.471 56.9076 111.57 57.2133C111.347 57.3624 113.601 62.1652 113.764 62.9681L113.776 63.0554C110.985 64.3519 108.512 64.1688 105.067 63.1124C104.859 63.0384 104.729 63.247 104.921 63.3817" fill="#17282F"/>
<path d="M112.61 63.8625C112.61 63.8625 111.732 66.4228 109.867 67.8393C109.182 68.3633 108.382 68.7368 107.434 68.7817C105.488 68.8811 104.919 67.2463 104.801 65.7315C104.7 64.4871 104.92 63.3167 104.92 63.3167C104.92 63.3167 108.322 64.9395 112.61 63.8625" fill="#17282F"/>
<path d="M109.867 67.8393C109.182 68.3633 108.382 68.7368 107.434 68.7817C105.488 68.8811 104.919 67.2463 104.801 65.7315C106.789 65.3179 109.11 66.0189 109.867 67.8393Z" fill="#F576B7"/>
<path d="M78.7417 50.524C80.2046 43.3029 74.7563 32.225 77.8145 28.6763C84.4357 20.9943 101.398 31.9291 111.92 30.6483C122.118 29.4064 124.687 22.4182 121.788 14.3845C118.889 6.35076 111.155 1.69473 99.5003 1.44974C87.4436 1.19748 77.2697 7.34525 71.8888 11.8521C71.8888 11.8521 73.933 7.395 72.8069 6.23434C71.6798 5.07488 67.1966 9.68359 65.8881 11.5695C64.5592 13.487 64.0224 16.8004 64.0224 16.8004C64.0224 16.8004 62.0928 16.485 59.3086 16.9144C56.7261 17.3122 53.7211 19.7597 53.6135 20.3916C53.5069 21.0246 57.2771 21.0234 59.8928 20.8221C59.8928 20.8221 55.8706 27.8807 56.6793 33.3759C57.4884 38.8712 69.411 63.945 71.5068 63.9632C74.2001 63.9875 78.1475 53.4578 78.7417 50.524" fill="#17282F"/>
<path d="M60.8161 20.0254L60.9611 20.1576C58.7563 22.616 57.0668 25.3666 56.4481 28.6558C55.728 32.4798 56.4836 36.4093 57.7888 40.0223C60.3281 47.0518 64.7029 53.1632 68.6317 59.4492C68.7469 59.6336 68.4388 59.8325 68.312 59.6566C63.7231 53.2663 58.9974 46.2914 56.6091 38.7319C54.5724 32.2858 55.1315 24.5019 60.8161 20.0254" fill="#17282F"/>
<path d="M77.0689 26.0543C80.0061 25.2538 83.3717 25.1107 86.39 25.4758C89.3634 25.8348 92.0567 27.3132 94.8158 28.3841C101.006 30.7891 107.668 32.4155 114.305 31.1481L114.328 31.2791C108.311 32.8291 102.099 31.7751 96.3242 29.7655C93.4111 28.7516 90.5752 27.13 87.5578 26.4751C84.1279 25.7305 80.604 26.2301 77.1661 26.5988C76.8088 26.6389 76.7259 26.1477 77.0689 26.0543" fill="#17282F"/>
<path d="M77.7988 8.15323C81.6287 5.53475 85.9148 3.59062 90.3202 2.16071C94.5481 0.790222 98.9781 -0.136363 103.443 0.0164524C111.149 0.282059 118.707 4.20187 121.468 11.7286C122.867 15.5417 123.008 19.9079 121.436 23.6943C121.33 23.9502 120.952 23.8095 121.034 23.5463C123.269 16.3616 121 8.28544 114.598 4.01996C107.724 -0.560848 98.9758 0.137713 91.408 2.35959C86.6454 3.75797 82.1873 5.84768 77.8296 8.20054L77.7988 8.15323" fill="#17282F"/>
<path d="M96.9662 45.2592C96.2428 45.3974 95.5242 45.6267 94.8278 45.9517C90.3104 48.0645 88.3539 53.4578 90.4649 57.9768C92.5784 62.4933 97.9754 64.4545 102.488 62.3393C107.006 60.2241 108.962 54.832 106.852 50.3142C105.065 46.4939 100.932 44.5048 96.9662 45.2592V45.2592ZM100.611 64.4035C96.0354 65.2731 91.2627 62.9785 89.2009 58.5674C86.7625 53.3511 89.0218 47.1269 94.236 44.688C99.4516 42.249 105.677 44.5072 108.116 49.7224C110.553 54.9375 108.295 61.1641 103.081 63.6031C102.275 63.979 101.447 64.2434 100.611 64.4035" fill="url(#paint14_linear_6948_37614)"/>
<path d="M118.754 38.2069C118.58 38.2396 118.409 38.2821 118.24 38.3366C116.656 38.8339 115.426 40.1765 114.775 42.1158C114.101 44.1327 114.134 46.5341 114.871 48.8772C116.37 53.6339 120.306 56.6526 123.671 55.589C127.024 54.5338 128.534 49.805 127.037 45.0484C126.3 42.7052 124.951 40.7174 123.241 39.45C121.775 38.3633 120.201 37.9315 118.754 38.2069V38.2069ZM123.426 57.0868C119.503 57.8351 115.177 54.4926 113.541 49.2981C112.714 46.676 112.683 43.9665 113.453 41.6731C114.247 39.2984 115.798 37.6405 117.819 37.0038C119.847 36.361 122.062 36.8376 124.073 38.3281C126.018 39.7702 127.544 42.0066 128.368 44.6287C130.096 50.1191 128.177 55.6326 124.091 56.9206C123.87 56.9886 123.65 57.0443 123.426 57.0868" fill="url(#paint15_linear_6948_37614)"/>
<path d="M108.145 50.9802L106.968 50.2295C108.078 48.4867 111.034 45.6814 114.285 47.5188L113.598 48.7329C110.689 47.0822 108.248 50.8226 108.145 50.9802" fill="url(#paint16_linear_6948_37614)"/>
<path d="M64.5804 67.5104L63.2051 67.2727C63.3184 66.6311 64.3767 60.9661 67.1979 59.5483C69.8372 58.2287 88.2095 54.2834 88.9893 54.1161L89.2811 55.4805C84.0125 56.6072 69.8609 59.7702 67.8252 60.7951C65.9619 61.7314 64.8528 65.9605 64.5804 67.5104" fill="url(#paint17_linear_6948_37614)"/>
<path d="M76.599 59.2452C76.599 59.2452 67.1977 49.4178 62.6236 52.9362C58.0481 56.4533 66.3037 71.5274 72.508 72.8045C78.7128 74.0841 80.0095 68.3644 80.0095 68.3644L76.599 59.2452" fill="url(#paint18_linear_6948_37614)"/>
<path d="M65.0965 57.1974L65.0898 57.3599C69.4617 58.392 72.2166 61.8728 74.3433 65.5937C72.8846 64.2608 71.0895 63.6835 69.2745 65.4542C69.1798 65.5476 69.3081 65.6992 69.42 65.6568C71.0497 65.0358 72.3104 65.1401 73.6578 66.3153C74.6114 67.1449 75.3486 68.2692 76.0957 69.2831C76.3459 69.6215 76.9792 69.3231 76.7741 68.9205L76.7254 68.8307C76.0199 63.5683 70.8105 56.8566 65.0965 57.1974Z" fill="#17282F"/>
<path d="M109.326 121.942C109.326 121.942 84.6589 95.1959 61.4131 97.0176L66.956 113.585C66.956 113.585 80.4439 110.725 108.776 127.178L109.326 121.942" fill="url(#paint19_linear_6948_37614)"/>
<path d="M60.9307 115.203C64.9571 113.802 69.2636 113.836 73.4075 114.227C77.5803 114.629 81.6614 115.683 85.6257 117.024C89.6133 118.31 93.4488 120.036 97.2384 121.84L102.813 124.79L108.256 127.997L108.866 128.356L109.373 127.943C113.151 124.858 116.668 121.539 119.976 117.986C121.619 116.206 123.239 114.397 124.66 112.427C126.093 110.473 127.453 108.451 128.477 106.261C125.849 110.314 122.485 113.749 119.062 117.085C117.34 118.746 115.541 120.33 113.718 121.877C111.897 123.422 110.059 124.976 108.179 126.414L109.296 126.36L103.818 123.018C101.949 121.975 100.05 120.979 98.1509 119.989C96.1948 119.108 94.2557 118.187 92.2673 117.378C90.2487 116.639 88.2588 115.829 86.1749 115.275C82.0726 113.989 77.7888 113.249 73.491 113.048C72.4188 112.978 71.3363 113.024 70.2637 113.038C69.1907 113.132 68.1166 113.197 67.0564 113.377C64.9387 113.682 62.8187 114.207 60.9307 115.203" fill="#17282F"/>
<path d="M56.9111 127.266C58.9118 125.225 60.6623 123 62.3532 120.734C64.0122 118.443 65.6107 116.108 66.9562 113.585C64.9531 115.624 63.204 117.848 61.5151 120.118C59.8574 122.411 58.2589 124.747 56.9111 127.266Z" fill="#17282F"/>
<path d="M98.2496 116.723C98.2496 116.723 97.4191 125.831 98.7082 138.704C99.2188 143.801 103.39 161.793 108.959 160.448C114.528 159.103 103.896 148.455 101.113 139.036C98.287 129.474 100.043 122.264 99.686 116.464L98.2496 116.723Z" fill="url(#paint20_linear_6948_37614)"/>
<path d="M108.366 160.52C103.096 160.519 99.2006 143.618 98.7084 138.704C98.1461 133.085 97.9868 128.182 97.9863 124.442C97.9858 119.615 98.2498 116.723 98.2498 116.723L99.6862 116.464C99.7217 117.043 99.7364 117.633 99.7369 118.241C99.7369 119.061 99.7108 119.909 99.6753 120.786C99.645 121.528 99.6076 122.289 99.5729 123.075C99.5175 124.338 99.4697 125.659 99.4697 127.042C99.4702 130.589 99.7881 134.553 101.113 139.036C103.334 146.551 110.55 154.849 110.549 158.579C110.549 159.524 110.085 160.177 108.96 160.448C108.76 160.497 108.562 160.52 108.366 160.52" fill="#29246A"/>
<path d="M118.756 113.034C118.756 113.034 122.34 120.514 125.313 131.864C126.489 136.357 128.63 152.97 123.471 153.586C118.312 154.203 123.984 141.791 123.374 132.906C122.754 123.885 118.983 118.311 117.454 113.27L118.756 113.034" fill="url(#paint21_linear_6948_37614)"/>
<path d="M123.117 153.608C121.748 153.608 121.283 152.513 121.284 150.745C121.287 146.969 123.42 140.124 123.421 134.33C123.421 133.848 123.406 133.372 123.374 132.907C122.958 126.844 121.118 122.338 119.492 118.504C119.304 118.062 119.119 117.629 118.94 117.203C118.36 115.828 117.837 114.532 117.454 113.27L118.756 113.035C118.756 113.035 122.34 120.514 125.313 131.865C125.915 134.163 126.77 139.636 126.768 144.514C126.768 149.17 125.99 153.286 123.471 153.586C123.347 153.601 123.229 153.608 123.117 153.608" fill="#29246A"/>
<path d="M219.678 254.318L219.679 260.367L354.537 260.341L354.536 254.293L219.678 254.318" fill="#33535F"/>
<path d="M219.678 254.318L219.679 260.367L287.554 260.354L287.553 254.306L219.678 254.318" fill="#17282F"/>
<path d="M285.98 260.349L417.41 260.326L435.964 171.059L304.533 171.083L285.98 260.349" fill="#273E47"/>
<path d="M350.784 217.698C350.277 222.535 353.788 226.458 358.625 226.457C363.463 226.455 367.797 222.533 368.304 217.696C368.811 212.858 365.301 208.936 360.464 208.938C355.626 208.939 351.292 212.86 350.784 217.698Z" fill="white"/>
<defs>
<linearGradient id="paint0_linear_6948_37614" x1="281.988" y1="321.945" x2="225.797" y2="223.202" gradientUnits="userSpaceOnUse">
<stop offset="0.045703" stop-color="#B93CE8"/>
<stop offset="1" stop-color="#FF9AEA"/>
</linearGradient>
<linearGradient id="paint1_linear_6948_37614" x1="281.988" y1="320.628" x2="220.232" y2="218.784" gradientUnits="userSpaceOnUse">
<stop offset="0.045703" stop-color="#B93CE8"/>
<stop offset="1" stop-color="#FF9AEA"/>
</linearGradient>
<linearGradient id="paint2_linear_6948_37614" x1="210.417" y1="249.422" x2="21.3162" y2="116.174" gradientUnits="userSpaceOnUse">
<stop stop-color="#F9A85D"/>
<stop offset="0.821513" stop-color="#FE5C73"/>
</linearGradient>
<linearGradient id="paint3_linear_6948_37614" x1="297.392" y1="260.595" x2="204.03" y2="155.471" gradientUnits="userSpaceOnUse">
<stop stop-color="#F9A85D"/>
<stop offset="0.821513" stop-color="#FE5C73"/>
</linearGradient>
<linearGradient id="paint4_linear_6948_37614" x1="227.616" y1="318.376" x2="79.3527" y2="273.19" gradientUnits="userSpaceOnUse">
<stop offset="0.045703" stop-color="#B93CE8"/>
<stop offset="1" stop-color="#FF9AEA"/>
</linearGradient>
<linearGradient id="paint5_linear_6948_37614" x1="150.822" y1="333.197" x2="-14.8685" y2="281.166" gradientUnits="userSpaceOnUse">
<stop offset="0.045703" stop-color="#B93CE8"/>
<stop offset="1" stop-color="#FF9AEA"/>
</linearGradient>
<linearGradient id="paint6_linear_6948_37614" x1="67.9031" y1="248.631" x2="-69.0871" y2="192.236" gradientUnits="userSpaceOnUse">
<stop stop-color="#F9A85D"/>
<stop offset="0.821513" stop-color="#FE5C73"/>
</linearGradient>
<linearGradient id="paint7_linear_6948_37614" x1="85.7391" y1="313.864" x2="-13.4353" y2="293.798" gradientUnits="userSpaceOnUse">
<stop offset="0.045703" stop-color="#B93CE8"/>
<stop offset="1" stop-color="#FF9AEA"/>
</linearGradient>
<linearGradient id="paint8_linear_6948_37614" x1="91.2271" y1="263.629" x2="13.5223" y2="159.386" gradientUnits="userSpaceOnUse">
<stop stop-color="#F9A85D"/>
<stop offset="0.821513" stop-color="#FE5C73"/>
</linearGradient>
<linearGradient id="paint9_linear_6948_37614" x1="159.393" y1="285.884" x2="55.0538" y2="182.941" gradientUnits="userSpaceOnUse">
<stop stop-color="#F9A85D"/>
<stop offset="0.821513" stop-color="#FE5C73"/>
</linearGradient>
<linearGradient id="paint10_linear_6948_37614" x1="106.87" y1="292.187" x2="12.1508" y2="235.93" gradientUnits="userSpaceOnUse">
<stop offset="0.045703" stop-color="#B93CE8"/>
<stop offset="1" stop-color="#FF9AEA"/>
</linearGradient>
<linearGradient id="paint11_linear_6948_37614" x1="132.438" y1="150.307" x2="53.6667" y2="101.161" gradientUnits="userSpaceOnUse">
<stop offset="0.045703" stop-color="#B93CE8"/>
<stop offset="1" stop-color="#FF9AEA"/>
</linearGradient>
<linearGradient id="paint12_linear_6948_37614" x1="106.171" y1="121.043" x2="48.7908" y2="86.742" gradientUnits="userSpaceOnUse">
<stop stop-color="#F9A85D"/>
<stop offset="0.821513" stop-color="#FE5C73"/>
</linearGradient>
<linearGradient id="paint13_linear_6948_37614" x1="113.342" y1="90.2976" x2="19.0376" y2="37.3002" gradientUnits="userSpaceOnUse">
<stop stop-color="#F9A85D"/>
<stop offset="0.821513" stop-color="#FE5C73"/>
</linearGradient>
<linearGradient id="paint14_linear_6948_37614" x1="109.098" y1="73.8773" x2="85.5027" y2="65.346" gradientUnits="userSpaceOnUse">
<stop offset="0.045703" stop-color="#B93CE8"/>
<stop offset="1" stop-color="#FF9AEA"/>
</linearGradient>
<linearGradient id="paint15_linear_6948_37614" x1="129.003" y1="66.299" x2="109.964" y2="60.8815" gradientUnits="userSpaceOnUse">
<stop offset="0.045703" stop-color="#B93CE8"/>
<stop offset="1" stop-color="#FF9AEA"/>
</linearGradient>
<linearGradient id="paint16_linear_6948_37614" x1="114.285" y1="52.7877" x2="107.72" y2="48.5116" gradientUnits="userSpaceOnUse">
<stop offset="0.045703" stop-color="#B93CE8"/>
<stop offset="1" stop-color="#FF9AEA"/>
</linearGradient>
<linearGradient id="paint17_linear_6948_37614" x1="89.2811" y1="73.4709" x2="67.0013" y2="57.7868" gradientUnits="userSpaceOnUse">
<stop offset="0.045703" stop-color="#B93CE8"/>
<stop offset="1" stop-color="#FF9AEA"/>
</linearGradient>
<linearGradient id="paint18_linear_6948_37614" x1="75.8941" y1="72.9911" x2="49.7529" y2="55.5943" gradientUnits="userSpaceOnUse">
<stop stop-color="#F9A85D"/>
<stop offset="0.821513" stop-color="#FE5C73"/>
</linearGradient>
<linearGradient id="paint19_linear_6948_37614" x1="109.326" y1="140.639" x2="63.2248" y2="114.234" gradientUnits="userSpaceOnUse">
<stop offset="0.045703" stop-color="#B93CE8"/>
<stop offset="1" stop-color="#FF9AEA"/>
</linearGradient>
<linearGradient id="paint20_linear_6948_37614" x1="110.549" y1="180.125" x2="94.6649" y2="178.487" gradientUnits="userSpaceOnUse">
<stop offset="0.045703" stop-color="#B93CE8"/>
<stop offset="1" stop-color="#FF9AEA"/>
</linearGradient>
<linearGradient id="paint21_linear_6948_37614" x1="126.769" y1="171.664" x2="114.948" y2="170.682" gradientUnits="userSpaceOnUse">
<stop offset="0.045703" stop-color="#B93CE8"/>
<stop offset="1" stop-color="#FF9AEA"/>
</linearGradient>
</defs>
</svg>
