<svg width="48" height="50" viewBox="0 0 48 50" fill="none" xmlns="http://www.w3.org/2000/svg">
<path d="M25.1198 49.8287C15.5172 49.3798 4.24563 43.4458 1.14726 33.8723C-0.709616 28.1345 -0.372611 21.6772 2.59946 15.861C6.63917 7.95479 14.7062 2.99787 23.5862 2.9838L24.8569 0L29.7069 9.91585L24.8569 19.8129L23.5815 16.8023C19.9408 16.8281 16.558 18.9031 14.9005 22.1472C13.671 24.5531 13.5377 27.2424 14.3156 29.6457C15.5406 33.4311 21.1672 35.7486 24.8569 36.166L19.494 43.3992L25.1198 49.8287Z" fill="url(#paint0_linear_6973_22)"/>
<path d="M27.8842 3.14893C36.5237 4.49929 43.9201 10.5851 46.7206 19.2381C48.5779 24.9762 48.2405 31.4332 45.2688 37.2494C41.6207 44.3888 34.631 49.1631 26.692 50L21.1016 43.3991L26.6246 36.0129C29.3733 35.3212 31.675 33.4928 32.9674 30.9632C34.1965 28.5573 34.3305 25.8679 33.5523 23.4647C32.5892 20.4883 30.2938 18.2465 27.4873 17.2562L31.1397 9.80393L27.8842 3.14893Z" fill="#4D92EB"/>
<defs>
<linearGradient id="paint0_linear_6973_22" x1="29.7069" y1="-22.1738" x2="-6.56765" y2="-14.3538" gradientUnits="userSpaceOnUse">
<stop offset="0.045703" stop-color="#B93CE8"/>
<stop offset="1" stop-color="#FF9AEA"/>
</linearGradient>
</defs>
</svg>
